<svg width="345" height="200" viewBox="0 0 345 200" fill="none" xmlns="http://www.w3.org/2000/svg">
<path d="M266.915 112.762C266.915 112.762 229.363 74.485 177.614 74.485C127.05 74.485 77.0676 112.762 77.0676 112.762L48.9932 101.046V135.415C53.4174 136.92 56.6558 140.991 56.6558 145.921C56.6558 150.899 53.352 154.979 48.8623 156.45L57.1628 179.595H32.6621L41.0362 156.254C37.0127 154.545 34.1996 150.572 34.1996 145.921C34.1996 141.367 36.9309 137.492 40.8318 135.726V97.6373L0 80.6164L179.658 0L344.49 81.6301L266.915 112.762V112.762ZM175.569 93.8767C227.629 93.8767 253.144 121.427 253.144 121.427V178.573C253.144 178.573 226.607 200 171.488 200C116.37 200 97.9946 178.573 97.9946 178.573V121.427C97.9946 121.427 123.509 93.8767 175.569 93.8767ZM174.547 187.753C210.627 187.753 239.879 180.437 239.879 171.427C239.879 162.418 210.627 155.101 174.547 155.101C138.466 155.101 109.223 162.418 109.223 171.427C109.223 180.437 138.466 187.753 174.547 187.753Z" fill="#252330"/>
<path d="M266.915 112.762C266.915 112.762 229.363 74.485 177.614 74.485C127.05 74.485 77.0676 112.762 77.0676 112.762L48.9932 101.046V135.415C53.4174 136.92 56.6558 140.991 56.6558 145.921C56.6558 150.899 53.352 154.979 48.8623 156.45L57.1628 179.595H32.6621L41.0362 156.254C37.0127 154.545 34.1996 150.572 34.1996 145.921C34.1996 141.367 36.9309 137.492 40.8318 135.726V97.6373L0 80.6164L179.658 0L344.49 81.6301L266.915 112.762V112.762ZM175.569 93.8767C227.629 93.8767 253.144 121.427 253.144 121.427V178.573C253.144 178.573 226.607 200 171.488 200C116.37 200 97.9946 178.573 97.9946 178.573V121.427C97.9946 121.427 123.509 93.8767 175.569 93.8767ZM174.547 187.753C210.627 187.753 239.879 180.437 239.879 171.427C239.879 162.418 210.627 155.101 174.547 155.101C138.466 155.101 109.223 162.418 109.223 171.427C109.223 180.437 138.466 187.753 174.547 187.753Z" fill="url(#paint0_linear_1112_475)"/>
<defs>
<linearGradient id="paint0_linear_1112_475" x1="172.245" y1="71.0113" x2="172.245" y2="163.864" gradientUnits="userSpaceOnUse">
<stop stop-color="#DFB46D"/>
<stop offset="1" stop-color="#E8CDA1"/>
</linearGradient>
</defs>
</svg>
