<svg width="215" height="200" viewBox="0 0 215 200" fill="none" xmlns="http://www.w3.org/2000/svg">
<path d="M125.862 140.741C117.688 140.741 111.055 134.104 111.055 125.926V111.111C111.055 102.926 117.688 96.2963 125.862 96.2963H214.706V140.741H125.862ZM136.968 108.022C130.837 108.022 125.862 113 125.862 119.133C125.862 125.274 130.837 130.244 136.968 130.244C143.105 130.244 148.073 125.274 148.073 119.133C148.073 113 143.105 108.022 136.968 108.022ZM103.651 111.111V125.926C103.651 138.193 113.602 148.148 125.862 148.148H199.899V177.778C199.899 190.044 189.955 200 177.688 200H22.211C9.95051 200 0 190.044 0 177.778V37.037C0 24.763 9.95051 14.8148 22.211 14.8148H93.5229L76.1317 22.0667H18.5165C12.3863 22.0667 7.41105 27.0444 7.41105 33.1778C7.41105 39.3185 12.3863 44.2889 18.5165 44.2889H199.899V88.8889H125.862C113.602 88.8889 103.651 98.837 103.651 111.111ZM29.622 59.2593H14.8147V74.0741H22.2184V66.6667H29.622V59.2593ZM29.622 81.4815H14.8147V96.2963H22.5219L22.2184 88.8889L29.622 89.0444V81.4815V81.4815ZM29.622 103.704H14.8147V118.519H22.3738L22.2184 111.111H29.622V103.704ZM29.622 125.926H14.8147V140.741H22.3738L22.2184 133.333L29.622 133.489V125.926ZM29.622 148.148H14.8147V162.963H22.2184V155.556H29.622V148.148ZM29.622 170.37H14.8147V185.185H22.3738L22.2184 177.933H29.622V170.37ZM59.2366 36.5778L146.23 0L162.888 36.5778H59.2366ZM160.259 14.8148H177.688C184.173 14.8148 189.948 17.637 194.013 22.0667H163.798L160.259 14.8148V14.8148Z" fill="#252330"/>
<path d="M125.862 140.741C117.688 140.741 111.055 134.104 111.055 125.926V111.111C111.055 102.926 117.688 96.2963 125.862 96.2963H214.706V140.741H125.862ZM136.968 108.022C130.837 108.022 125.862 113 125.862 119.133C125.862 125.274 130.837 130.244 136.968 130.244C143.105 130.244 148.073 125.274 148.073 119.133C148.073 113 143.105 108.022 136.968 108.022ZM103.651 111.111V125.926C103.651 138.193 113.602 148.148 125.862 148.148H199.899V177.778C199.899 190.044 189.955 200 177.688 200H22.211C9.95051 200 0 190.044 0 177.778V37.037C0 24.763 9.95051 14.8148 22.211 14.8148H93.5229L76.1317 22.0667H18.5165C12.3863 22.0667 7.41105 27.0444 7.41105 33.1778C7.41105 39.3185 12.3863 44.2889 18.5165 44.2889H199.899V88.8889H125.862C113.602 88.8889 103.651 98.837 103.651 111.111ZM29.622 59.2593H14.8147V74.0741H22.2184V66.6667H29.622V59.2593ZM29.622 81.4815H14.8147V96.2963H22.5219L22.2184 88.8889L29.622 89.0444V81.4815V81.4815ZM29.622 103.704H14.8147V118.519H22.3738L22.2184 111.111H29.622V103.704ZM29.622 125.926H14.8147V140.741H22.3738L22.2184 133.333L29.622 133.489V125.926ZM29.622 148.148H14.8147V162.963H22.2184V155.556H29.622V148.148ZM29.622 170.37H14.8147V185.185H22.3738L22.2184 177.933H29.622V170.37ZM59.2366 36.5778L146.23 0L162.888 36.5778H59.2366ZM160.259 14.8148H177.688C184.173 14.8148 189.948 17.637 194.013 22.0667H163.798L160.259 14.8148V14.8148Z" fill="url(#paint0_linear_1112_473)"/>
<defs>
<linearGradient id="paint0_linear_1112_473" x1="107.353" y1="71.0113" x2="107.353" y2="163.864" gradientUnits="userSpaceOnUse">
<stop stop-color="#DFB46D"/>
<stop offset="1" stop-color="#E8CDA1"/>
</linearGradient>
</defs>
</svg>
