<svg width="153" height="200" viewBox="0 0 153 200" fill="none" xmlns="http://www.w3.org/2000/svg">
<path d="M90.6841 123.202C107.022 123.202 122.69 116.712 134.243 105.16C145.795 93.6073 152.285 77.9388 152.285 61.6012C152.285 45.2635 145.795 29.595 134.243 18.0426C122.69 6.49011 107.022 0 90.6841 0H0V18.6317H23.2565V104.571H0V123.202H23.2565V148.763H0V167.394H23.2565V200H41.8882V167.394H97.8166V148.763H41.8882V123.202H90.6841ZM41.8882 18.6317H90.6841C96.327 18.6317 101.915 19.7432 107.128 21.9026C112.341 24.062 117.078 27.2271 121.068 31.2172C125.058 35.2073 128.223 39.9442 130.383 45.1575C132.542 50.3708 133.654 55.9583 133.654 61.6012C133.654 67.244 132.542 72.8316 130.383 78.0449C128.223 83.2582 125.058 87.9951 121.068 91.9851C117.078 95.9752 112.341 99.1403 107.128 101.3C101.915 103.459 96.327 104.571 90.6841 104.571H41.8882V18.6317Z" fill="#252330"/>
<path d="M90.6841 123.202C107.022 123.202 122.69 116.712 134.243 105.16C145.795 93.6073 152.285 77.9388 152.285 61.6012C152.285 45.2635 145.795 29.595 134.243 18.0426C122.69 6.49011 107.022 0 90.6841 0H0V18.6317H23.2565V104.571H0V123.202H23.2565V148.763H0V167.394H23.2565V200H41.8882V167.394H97.8166V148.763H41.8882V123.202H90.6841ZM41.8882 18.6317H90.6841C96.327 18.6317 101.915 19.7432 107.128 21.9026C112.341 24.062 117.078 27.2271 121.068 31.2172C125.058 35.2073 128.223 39.9442 130.383 45.1575C132.542 50.3708 133.654 55.9583 133.654 61.6012C133.654 67.244 132.542 72.8316 130.383 78.0449C128.223 83.2582 125.058 87.9951 121.068 91.9851C117.078 95.9752 112.341 99.1403 107.128 101.3C101.915 103.459 96.327 104.571 90.6841 104.571H41.8882V18.6317Z" fill="url(#paint0_linear_1112_447)"/>
<defs>
<linearGradient id="paint0_linear_1112_447" x1="76.1426" y1="71.0113" x2="76.1427" y2="163.864" gradientUnits="userSpaceOnUse">
<stop stop-color="#DFB46D"/>
<stop offset="1" stop-color="#E8CDA1"/>
</linearGradient>
</defs>
</svg>
