<svg width="201" height="200" viewBox="0 0 201 200" fill="none" xmlns="http://www.w3.org/2000/svg">
<path d="M38.1919 1.13146C33.8337 2.6736 31.7552 4.14868 28.9391 7.8364C25.9889 11.6582 25.3855 14.3402 25.3855 23.3919V31.2366L19.5522 31.5048C10.7016 31.9742 5.47178 35.0585 2.11931 41.9645L0.241931 45.7864L0.0407828 110.757C-0.093316 153.401 0.107832 177.002 0.577178 179.483C2.05227 187.529 7.41622 194.569 14.6576 198.19L18.3453 200H181.946L185.768 198.19C190.863 195.843 195.356 191.552 197.904 186.59L200.049 182.567L200.25 98.5543L200.384 14.5413L198.976 11.2559C197.367 7.5682 193.076 3.20999 189.187 1.39966C186.773 0.259816 182.214 0.192767 114.226 0.0586682C45.165 -0.0754306 41.6785 -0.0754306 38.1919 1.13146ZM186.371 14.5413L188.316 16.4858V97.0792C188.316 168.219 188.181 177.874 187.31 180.086C185.902 183.372 183.823 185.517 180.605 186.992C178.057 188.199 174.369 188.266 100.481 188.266C26.5253 188.266 22.9046 188.199 20.3568 186.992C17.2054 185.517 14.3894 182.701 13.3836 180.019C12.8472 178.745 12.6461 157.357 12.6461 112.903V47.6637L14.2553 45.9205C15.9985 44.0431 19.0828 43.1714 22.7705 43.5737L25.0502 43.7749L25.3855 107.941L25.7207 172.107L27.2628 173.65C29.4755 175.929 33.7666 175.728 35.8452 173.314L37.4544 171.437V94.6654C37.4544 12.4628 37.3203 15.2118 40.6057 13.3345C41.4103 12.8651 65.9504 12.664 113.086 12.5969H184.427L186.371 14.5413V14.5413Z" fill="#252330"/>
<path d="M38.1919 1.13146C33.8337 2.6736 31.7552 4.14868 28.9391 7.8364C25.9889 11.6582 25.3855 14.3402 25.3855 23.3919V31.2366L19.5522 31.5048C10.7016 31.9742 5.47178 35.0585 2.11931 41.9645L0.241931 45.7864L0.0407828 110.757C-0.093316 153.401 0.107832 177.002 0.577178 179.483C2.05227 187.529 7.41622 194.569 14.6576 198.19L18.3453 200H181.946L185.768 198.19C190.863 195.843 195.356 191.552 197.904 186.59L200.049 182.567L200.25 98.5543L200.384 14.5413L198.976 11.2559C197.367 7.5682 193.076 3.20999 189.187 1.39966C186.773 0.259816 182.214 0.192767 114.226 0.0586682C45.165 -0.0754306 41.6785 -0.0754306 38.1919 1.13146ZM186.371 14.5413L188.316 16.4858V97.0792C188.316 168.219 188.181 177.874 187.31 180.086C185.902 183.372 183.823 185.517 180.605 186.992C178.057 188.199 174.369 188.266 100.481 188.266C26.5253 188.266 22.9046 188.199 20.3568 186.992C17.2054 185.517 14.3894 182.701 13.3836 180.019C12.8472 178.745 12.6461 157.357 12.6461 112.903V47.6637L14.2553 45.9205C15.9985 44.0431 19.0828 43.1714 22.7705 43.5737L25.0502 43.7749L25.3855 107.941L25.7207 172.107L27.2628 173.65C29.4755 175.929 33.7666 175.728 35.8452 173.314L37.4544 171.437V94.6654C37.4544 12.4628 37.3203 15.2118 40.6057 13.3345C41.4103 12.8651 65.9504 12.664 113.086 12.5969H184.427L186.371 14.5413V14.5413Z" fill="url(#paint0_linear_1112_469)"/>
<path d="M52.4066 26.9456L50.5292 28.5548L50.3281 52.7596L50.127 76.8974L52.1384 79.11L54.0829 81.3227L76.4774 81.5238C88.7474 81.6579 99.8106 81.5238 101.084 81.3227C102.291 81.0545 104.035 80.1828 104.906 79.3112L106.515 77.702V53.8324C106.515 29.4264 106.381 28.0855 103.901 26.2081C103.096 25.6046 96.5922 25.4035 78.5559 25.3364H54.284L52.4066 26.9456ZM94.3125 53.296L94.4466 68.9185H62.9334V37.4053L78.5559 37.5394L94.1114 37.7406L94.3125 53.296V53.296ZM120.73 38.4781C119.121 39.6179 118.786 41.3612 120.059 42.6352C121.199 43.775 173.632 43.775 174.772 42.6352C176.046 41.3612 175.71 39.6179 174.101 38.4781C172.827 37.5394 169.14 37.4053 147.416 37.4053C125.692 37.4053 122.004 37.5394 120.73 38.4781V38.4781ZM120.73 57.2519C118.853 58.5259 118.853 60.5374 120.73 61.8113C123.01 63.4205 171.822 63.4205 174.101 61.8113C174.906 61.2749 175.576 60.2021 175.576 59.5316C175.576 58.8611 174.906 57.7883 174.101 57.2519C172.827 56.3133 169.14 56.1792 147.416 56.1792C125.692 56.1792 122.004 56.3133 120.73 57.2519V57.2519ZM121.199 75.8917C119.054 76.9645 118.786 79.2442 120.73 80.5851C122.071 81.5238 125.423 81.6579 147.416 81.6579C169.408 81.6579 172.76 81.5238 174.101 80.5851C176.046 79.2442 175.778 76.9645 173.565 75.8246C171.218 74.6848 123.546 74.6848 121.199 75.8917ZM50.9986 95.2019C49.7247 96.4758 50.0599 98.2191 51.6691 99.359C53.0101 100.298 59.9162 100.432 112.885 100.432C165.854 100.432 172.76 100.298 174.101 99.359C175.71 98.2191 176.046 96.4758 174.772 95.2019C173.632 94.0621 52.1384 94.0621 50.9986 95.2019V95.2019ZM50.7304 114.914C49.9929 116.457 50.0599 116.859 51.4679 117.932C52.943 119.139 55.2897 119.206 112.818 119.206C165.854 119.206 172.76 119.071 174.101 118.133C175.71 116.993 176.046 115.25 174.772 113.976C174.168 113.372 159.485 113.171 112.751 113.171H51.535L50.7304 114.914V114.914ZM50.7304 133.621C50.127 135.029 50.194 135.499 51.1997 136.638C52.4066 137.912 53.2783 137.979 78.4218 137.979C101.152 137.979 104.571 137.845 105.443 136.907C106.717 135.7 106.851 133.889 105.711 132.75C105.107 132.146 98.0673 131.945 78.2207 131.945H51.535L50.7304 133.621V133.621ZM120.059 132.75C118.92 133.889 119.054 135.7 120.328 136.907C121.199 137.845 124.619 137.979 147.416 137.979C170.212 137.979 173.632 137.845 174.504 136.907C175.778 135.7 175.912 133.889 174.772 132.75C173.632 131.61 121.199 131.61 120.059 132.75V132.75ZM50.7304 152.395C50.127 153.803 50.194 154.272 51.1997 155.412C52.4066 156.686 53.2783 156.753 78.4218 156.753C101.152 156.753 104.571 156.619 105.443 155.68C106.717 154.474 106.851 152.663 105.711 151.523C105.107 150.92 98.0673 150.719 78.2207 150.719H51.535L50.7304 152.395V152.395ZM120.059 151.523C118.92 152.663 119.054 154.474 120.328 155.68C121.199 156.619 124.619 156.753 147.416 156.753C170.212 156.753 173.632 156.619 174.504 155.68C175.778 154.474 175.912 152.663 174.772 151.523C173.632 150.384 121.199 150.384 120.059 151.523V151.523ZM50.8645 170.767C49.9258 172.577 49.9929 173.247 51.2668 174.454C52.1384 175.393 55.558 175.527 78.0866 175.527C94.6478 175.527 104.37 175.259 105.242 174.857C106.65 174.052 106.918 171.504 105.711 170.297C105.107 169.694 98.0673 169.493 78.2207 169.493C52.5407 169.493 51.535 169.56 50.8645 170.767V170.767ZM120.059 170.297C118.92 171.437 119.054 173.247 120.328 174.454C121.199 175.393 124.619 175.527 147.416 175.527C170.212 175.527 173.632 175.393 174.504 174.454C175.778 173.247 175.912 171.437 174.772 170.297C173.632 169.157 121.199 169.157 120.059 170.297V170.297Z" fill="#252330"/>
<path d="M52.4066 26.9456L50.5292 28.5548L50.3281 52.7596L50.127 76.8974L52.1384 79.11L54.0829 81.3227L76.4774 81.5238C88.7474 81.6579 99.8106 81.5238 101.084 81.3227C102.291 81.0545 104.035 80.1828 104.906 79.3112L106.515 77.702V53.8324C106.515 29.4264 106.381 28.0855 103.901 26.2081C103.096 25.6046 96.5922 25.4035 78.5559 25.3364H54.284L52.4066 26.9456ZM94.3125 53.296L94.4466 68.9185H62.9334V37.4053L78.5559 37.5394L94.1114 37.7406L94.3125 53.296V53.296ZM120.73 38.4781C119.121 39.6179 118.786 41.3612 120.059 42.6352C121.199 43.775 173.632 43.775 174.772 42.6352C176.046 41.3612 175.71 39.6179 174.101 38.4781C172.827 37.5394 169.14 37.4053 147.416 37.4053C125.692 37.4053 122.004 37.5394 120.73 38.4781V38.4781ZM120.73 57.2519C118.853 58.5259 118.853 60.5374 120.73 61.8113C123.01 63.4205 171.822 63.4205 174.101 61.8113C174.906 61.2749 175.576 60.2021 175.576 59.5316C175.576 58.8611 174.906 57.7883 174.101 57.2519C172.827 56.3133 169.14 56.1792 147.416 56.1792C125.692 56.1792 122.004 56.3133 120.73 57.2519V57.2519ZM121.199 75.8917C119.054 76.9645 118.786 79.2442 120.73 80.5851C122.071 81.5238 125.423 81.6579 147.416 81.6579C169.408 81.6579 172.76 81.5238 174.101 80.5851C176.046 79.2442 175.778 76.9645 173.565 75.8246C171.218 74.6848 123.546 74.6848 121.199 75.8917ZM50.9986 95.2019C49.7247 96.4758 50.0599 98.2191 51.6691 99.359C53.0101 100.298 59.9162 100.432 112.885 100.432C165.854 100.432 172.76 100.298 174.101 99.359C175.71 98.2191 176.046 96.4758 174.772 95.2019C173.632 94.0621 52.1384 94.0621 50.9986 95.2019V95.2019ZM50.7304 114.914C49.9929 116.457 50.0599 116.859 51.4679 117.932C52.943 119.139 55.2897 119.206 112.818 119.206C165.854 119.206 172.76 119.071 174.101 118.133C175.71 116.993 176.046 115.25 174.772 113.976C174.168 113.372 159.485 113.171 112.751 113.171H51.535L50.7304 114.914V114.914ZM50.7304 133.621C50.127 135.029 50.194 135.499 51.1997 136.638C52.4066 137.912 53.2783 137.979 78.4218 137.979C101.152 137.979 104.571 137.845 105.443 136.907C106.717 135.7 106.851 133.889 105.711 132.75C105.107 132.146 98.0673 131.945 78.2207 131.945H51.535L50.7304 133.621V133.621ZM120.059 132.75C118.92 133.889 119.054 135.7 120.328 136.907C121.199 137.845 124.619 137.979 147.416 137.979C170.212 137.979 173.632 137.845 174.504 136.907C175.778 135.7 175.912 133.889 174.772 132.75C173.632 131.61 121.199 131.61 120.059 132.75V132.75ZM50.7304 152.395C50.127 153.803 50.194 154.272 51.1997 155.412C52.4066 156.686 53.2783 156.753 78.4218 156.753C101.152 156.753 104.571 156.619 105.443 155.68C106.717 154.474 106.851 152.663 105.711 151.523C105.107 150.92 98.0673 150.719 78.2207 150.719H51.535L50.7304 152.395V152.395ZM120.059 151.523C118.92 152.663 119.054 154.474 120.328 155.68C121.199 156.619 124.619 156.753 147.416 156.753C170.212 156.753 173.632 156.619 174.504 155.68C175.778 154.474 175.912 152.663 174.772 151.523C173.632 150.384 121.199 150.384 120.059 151.523V151.523ZM50.8645 170.767C49.9258 172.577 49.9929 173.247 51.2668 174.454C52.1384 175.393 55.558 175.527 78.0866 175.527C94.6478 175.527 104.37 175.259 105.242 174.857C106.65 174.052 106.918 171.504 105.711 170.297C105.107 169.694 98.0673 169.493 78.2207 169.493C52.5407 169.493 51.535 169.56 50.8645 170.767V170.767ZM120.059 170.297C118.92 171.437 119.054 173.247 120.328 174.454C121.199 175.393 124.619 175.527 147.416 175.527C170.212 175.527 173.632 175.393 174.504 174.454C175.778 173.247 175.912 171.437 174.772 170.297C173.632 169.157 121.199 169.157 120.059 170.297V170.297Z" fill="url(#paint1_linear_1112_469)"/>
<defs>
<linearGradient id="paint0_linear_1112_469" x1="100.192" y1="71.0113" x2="100.192" y2="163.864" gradientUnits="userSpaceOnUse">
<stop stop-color="#DFB46D"/>
<stop offset="1" stop-color="#E8CDA1"/>
</linearGradient>
<linearGradient id="paint1_linear_1112_469" x1="112.852" y1="78.6626" x2="112.852" y2="148.39" gradientUnits="userSpaceOnUse">
<stop stop-color="#DFB46D"/>
<stop offset="1" stop-color="#E8CDA1"/>
</linearGradient>
</defs>
</svg>
