<svg width="150" height="200" viewBox="0 0 150 200" fill="none" xmlns="http://www.w3.org/2000/svg">
<path d="M46.8749 28.125C46.8749 12.5918 59.4667 0 74.9999 0C90.5331 0 103.125 12.5918 103.125 28.125C103.125 43.6578 90.5331 56.25 74.9999 56.25C59.4667 56.25 46.8749 43.6578 46.8749 28.125ZM146.339 28.6613C141.457 23.7797 133.542 23.7797 128.661 28.6613L94.8222 62.5H55.1772L21.3386 28.6613C16.4573 23.7797 8.54248 23.7797 3.66123 28.6613C-1.22041 33.543 -1.22041 41.4574 3.66123 46.3391L40.6249 83.3023V187.5C40.6249 194.404 46.2214 200 53.1249 200H59.3749C66.2784 200 71.8749 194.404 71.8749 187.5V143.75H78.1249V187.5C78.1249 194.404 83.7214 200 90.6249 200H96.8749C103.778 200 109.375 194.404 109.375 187.5V83.3023L146.339 46.3387C151.22 41.457 151.22 33.543 146.339 28.6613V28.6613Z" fill="#252330"/>
<path d="M46.8749 28.125C46.8749 12.5918 59.4667 0 74.9999 0C90.5331 0 103.125 12.5918 103.125 28.125C103.125 43.6578 90.5331 56.25 74.9999 56.25C59.4667 56.25 46.8749 43.6578 46.8749 28.125ZM146.339 28.6613C141.457 23.7797 133.542 23.7797 128.661 28.6613L94.8222 62.5H55.1772L21.3386 28.6613C16.4573 23.7797 8.54248 23.7797 3.66123 28.6613C-1.22041 33.543 -1.22041 41.4574 3.66123 46.3391L40.6249 83.3023V187.5C40.6249 194.404 46.2214 200 53.1249 200H59.3749C66.2784 200 71.8749 194.404 71.8749 187.5V143.75H78.1249V187.5C78.1249 194.404 83.7214 200 90.6249 200H96.8749C103.778 200 109.375 194.404 109.375 187.5V83.3023L146.339 46.3387C151.22 41.457 151.22 33.543 146.339 28.6613V28.6613Z" fill="url(#paint0_linear_1112_467)"/>
<defs>
<linearGradient id="paint0_linear_1112_467" x1="74.9999" y1="71.0113" x2="74.9999" y2="163.864" gradientUnits="userSpaceOnUse">
<stop stop-color="#DFB46D"/>
<stop offset="1" stop-color="#E8CDA1"/>
</linearGradient>
</defs>
</svg>
