<svg width="200" height="200" viewBox="0 0 200 200" fill="none" xmlns="http://www.w3.org/2000/svg">
<path d="M100 200C155.229 200 200 155.229 200 100C200 44.7715 155.229 0 100 0C44.7715 0 0 44.7715 0 100C0 155.229 44.7715 200 100 200ZM100 18.75C144.873 18.75 181.25 55.127 181.25 100C181.25 144.873 144.873 181.25 100 181.25C55.127 181.25 18.75 144.873 18.75 100C18.75 55.127 55.127 18.75 100 18.75ZM100 116.945C122.646 116.945 144.186 110.929 162.5 100.359C159.654 135.211 132.592 162.5 100 162.5C67.4086 162.5 40.3473 135.181 37.5 100.331C55.8145 110.9 77.3535 116.945 100 116.945ZM50 68.75C50 79.1055 55.5965 87.5 62.5 87.5C69.4035 87.5 75 79.1055 75 68.75C75 58.3945 69.4035 50 62.5 50C55.5965 50 50 58.3945 50 68.75ZM125 68.75C125 79.1055 130.596 87.5 137.5 87.5C144.404 87.5 150 79.1055 150 68.75C150 58.3945 144.404 50 137.5 50C130.596 50 125 58.3945 125 68.75Z" fill="#252330"/>
<path d="M100 200C155.229 200 200 155.229 200 100C200 44.7715 155.229 0 100 0C44.7715 0 0 44.7715 0 100C0 155.229 44.7715 200 100 200ZM100 18.75C144.873 18.75 181.25 55.127 181.25 100C181.25 144.873 144.873 181.25 100 181.25C55.127 181.25 18.75 144.873 18.75 100C18.75 55.127 55.127 18.75 100 18.75ZM100 116.945C122.646 116.945 144.186 110.929 162.5 100.359C159.654 135.211 132.592 162.5 100 162.5C67.4086 162.5 40.3473 135.181 37.5 100.331C55.8145 110.9 77.3535 116.945 100 116.945ZM50 68.75C50 79.1055 55.5965 87.5 62.5 87.5C69.4035 87.5 75 79.1055 75 68.75C75 58.3945 69.4035 50 62.5 50C55.5965 50 50 58.3945 50 68.75ZM125 68.75C125 79.1055 130.596 87.5 137.5 87.5C144.404 87.5 150 79.1055 150 68.75C150 58.3945 144.404 50 137.5 50C130.596 50 125 58.3945 125 68.75Z" fill="url(#paint0_linear_1112_450)"/>
<defs>
<linearGradient id="paint0_linear_1112_450" x1="100" y1="71.0113" x2="100" y2="163.864" gradientUnits="userSpaceOnUse">
<stop stop-color="#DFB46D"/>
<stop offset="1" stop-color="#E8CDA1"/>
</linearGradient>
</defs>
</svg>
