<svg width="195" height="51" viewBox="0 0 195 51" fill="none" xmlns="http://www.w3.org/2000/svg">
<path d="M125.661 15.224C125.093 14.088 124.459 13.344 123.747 12.956C123.019 12.5653 122.153 12.38 121.131 12.38C119.901 12.38 118.877 12.7947 118.047 13.6067C117.219 14.4267 116.828 15.4613 116.828 16.68C116.828 17.1973 116.948 17.7653 117.2 18.3747C118.489 17.7653 119.615 17.248 120.588 16.8333C122.281 16.172 123.976 15.6307 125.661 15.224ZM159.437 16.9867C157.779 16.0707 155.356 15.292 152.12 14.6827C148.888 14.0733 145.737 13.752 142.653 13.752C139.287 13.752 136.237 13.9453 133.544 14.2947C130.852 14.656 128.617 15.1227 126.812 15.6827C127.279 16.8573 127.516 18.2973 127.516 19.992V20.752C127.413 21.1173 127.347 21.38 127.347 21.524C127.667 21.2187 127.919 20.9893 128.125 20.8387C128.784 20.372 129.479 20.136 130.208 20.136C130.716 20.136 131.133 20.2107 131.427 20.372C131.747 20.524 132.021 20.9667 132.284 21.6773C132.331 21.888 132.427 22.2187 132.579 22.6747C131.156 22.6747 128.937 23.7347 125.973 25.836C123.604 27.5187 122.077 28.552 121.352 28.9173C117.88 30.752 114.188 31.6773 110.292 31.6773H109.292H108.513C108.148 31.584 107.904 31.5333 107.752 31.5333C107.855 32.396 108.073 33.1173 108.437 33.6853C109.716 35.732 112.255 36.7507 116.049 36.7507C118.047 36.7507 120.536 36.156 123.508 34.9867C126.481 33.8027 129.453 32.2187 132.427 30.2107C134.781 28.672 136.913 26.7573 138.809 24.4453C139.997 23.0133 141.536 20.752 143.435 17.688C144.195 18.196 144.585 19.008 144.585 20.136C144.585 20.752 144.476 21.3627 144.271 21.956C144.076 22.5413 143.807 23.0907 143.511 23.6067C146.635 21.8627 149.685 20.4067 152.664 19.2213C154.763 18.3987 157.019 17.6613 159.437 16.9867V16.9867ZM125.973 15.9093C124.992 16.172 123.703 16.5787 122.096 17.1453C120.479 17.7133 118.997 18.3493 117.659 19.06C117.828 19.576 118.336 20.0853 119.2 20.6013C118.945 20.812 118.505 20.8053 117.861 20.568C117.208 20.3387 116.779 20.068 116.508 19.7627C114 21.0413 111.951 22.6067 110.359 24.4453C108.565 26.4947 107.675 28.5787 107.675 30.6773C108.489 30.7787 109.123 30.8307 109.588 30.8307C111.443 30.8307 113.255 30.5933 115.049 30.1013C116.847 29.62 118.385 28.9587 119.664 28.1387C121.773 26.86 123.399 25.4613 124.549 23.9453C125.703 22.4373 126.279 20.628 126.279 18.5267V16.9867C126.125 16.484 126.023 16.1227 125.973 15.9093ZM105.125 38.984C102.875 37.544 100.875 35.708 99.1307 33.4453C98.5733 32.7347 97.9293 31.752 97.208 30.5267C96.844 31.196 96.5227 31.752 96.2107 32.2187C94.3227 34.9373 91.9507 37.188 89.14 38.984C89.9013 39.6013 90.6973 39.8987 91.5107 39.8987C92.7973 39.8987 93.948 39.3387 94.9813 38.2133C94.9293 38.7293 95.1853 39.7547 95.744 41.2867C96.3013 42.828 96.7787 43.836 97.1333 44.2947C97.648 43.6773 98.216 42.396 98.8253 40.44C99.1827 39.3147 99.3333 38.5787 99.284 38.2133C100.315 39.3387 101.468 39.8987 102.74 39.8987C103.568 39.8987 104.356 39.6013 105.125 38.984V38.984ZM107.904 38.4507C107.429 39.3147 106.752 40 105.82 40.4747C104.888 40.9667 103.932 41.2187 102.909 41.2187C101.976 41.2187 101.289 41 100.825 40.6013C100.672 41.9813 100.137 43.8093 99.216 46.0627C98.648 47.4867 97.9453 48.976 97.1333 50.5187C96.3013 48.976 95.6253 47.4867 95.06 46.0627C94.1347 43.8093 93.5933 41.9813 93.44 40.6013C92.984 41 92.2893 41.2187 91.3587 41.2187C90.3413 41.2187 89.3587 40.9667 88.4453 40.4747C87.5227 40 86.836 39.3147 86.3693 38.4507C88.8693 37.984 91.164 36.596 93.2213 34.2947C94.9067 32.396 96.2107 30.2107 97.1333 27.7653C98.0653 30.1613 99.3667 32.32 101.052 34.2267C103.153 36.5707 105.432 37.984 107.904 38.4507V38.4507ZM77.0573 18.3747C77.3173 17.7133 77.4453 17.12 77.4453 16.612C77.4453 15.4787 77.0467 14.4973 76.252 13.64C75.456 12.8027 74.4133 12.38 73.1347 12.38C71.7973 12.38 70.7813 12.648 70.0547 13.216C69.5467 13.6333 69.0547 14.2947 68.596 15.224C70.1373 15.5813 71.7973 16.1227 73.6013 16.8333C74.828 17.3493 75.9813 17.8573 77.0573 18.3747V18.3747ZM86.5987 30.6773C86.5987 28.672 85.744 26.6907 84.016 24.6827C82.2973 22.6747 80.2133 21.0413 77.76 19.7627C77.4453 20.068 76.956 20.32 76.2947 20.524C75.6253 20.7267 75.2187 20.752 75.0653 20.6013C75.9293 20.0853 76.4373 19.576 76.5907 19.06C75.2707 18.3493 73.8467 17.7213 72.372 17.1907C70.8827 16.6453 69.5213 16.224 68.292 15.9093C68.1893 16.2733 68.1067 16.7053 68.0547 17.224C68.0053 17.732 67.9867 18.196 67.9867 18.5933C67.9867 20.6533 68.596 22.5053 69.8333 24.148C70.916 25.588 72.5 26.9093 74.6093 28.1387C75.776 28.864 77.344 29.484 79.284 30.0267C81.24 30.568 83.06 30.8307 84.752 30.8307H85.6693C86.0827 30.7293 86.396 30.6773 86.5987 30.6773ZM86.5133 31.5333C86.1067 31.6333 85.6427 31.6773 85.1253 31.6773H83.9067C80.0627 31.6773 76.388 30.752 72.916 28.9173C72.2893 28.552 70.3 27.248 66.904 24.9787C64.5987 23.4453 62.864 22.6747 61.688 22.6747C61.7893 22.2187 61.856 21.888 61.9067 21.6773C62.1613 20.9667 62.4667 20.524 62.804 20.372C63.128 20.2107 63.5493 20.136 64.0573 20.136C64.88 20.136 65.6853 20.448 66.4453 21.068C66.5573 21.1693 66.7 21.328 66.904 21.524C66.8013 20.9147 66.7493 20.3547 66.7493 19.8387C66.7493 18.248 66.9787 16.8573 67.4453 15.6827C65.7 15.172 63.5 14.716 60.8413 14.328C58.164 13.956 55.0907 13.752 51.612 13.752C48.58 13.752 45.4373 14.0813 42.1773 14.716C38.9267 15.36 36.4707 16.1227 34.836 16.9867C37.5053 17.7133 39.732 18.424 41.5333 19.136C44.2947 20.2107 47.3773 21.7 50.7653 23.6067C50.4427 23.0907 50.1973 22.5413 49.9947 21.956C49.7813 21.3627 49.68 20.7267 49.68 20.068C49.68 18.984 50.0707 18.196 50.8307 17.688C52.88 20.9667 54.4067 23.216 55.3773 24.4453C57.1667 26.656 59.3173 28.5787 61.8413 30.2107C64.8547 32.2187 67.8173 33.8027 70.7133 34.9867C73.6093 36.156 76.0987 36.7507 78.208 36.7507C80.672 36.7507 82.628 36.3253 84.06 35.4453C85.4973 34.5733 86.32 33.268 86.5133 31.5333V31.5333ZM194.265 25.3667C194.265 27.424 193.612 29.2133 192.344 30.752C190.801 32.6067 188.651 33.516 185.883 33.516C183.773 33.516 181.912 32.7867 180.268 31.2973C178.625 29.8053 177.812 28.036 177.812 25.9867C177.812 24.708 178.167 23.5307 178.88 22.456L179.203 22.5307C178.625 23.396 178.347 24.3933 178.347 25.5213C178.347 27.112 178.899 28.476 179.997 29.6013C181.099 30.7293 182.749 31.2973 184.961 31.2973C186.703 31.2973 188.159 30.8547 189.344 29.992C191.091 28.7053 191.953 26.7053 191.953 23.9973C191.953 21.1173 190.852 18.8387 188.651 17.1453C186.245 15.292 182.825 14.3773 178.421 14.3773C176.883 14.3773 174.552 14.6907 171.427 15.3333C168.295 15.9867 165.399 16.8573 162.743 17.984C164.112 19.008 165.24 20.1173 166.109 21.2867C167.245 22.88 167.804 24.5293 167.804 26.224C167.804 28.7893 167.041 30.8307 165.5 32.3627C163.961 33.904 162.175 34.6827 160.115 34.6827C158.219 34.6827 156.661 34.1333 155.459 33.024C154.263 31.9213 153.661 30.5 153.661 28.7547C153.661 27.8413 154.011 27.1227 154.737 26.6387C155.448 26.164 156.255 25.9093 157.117 25.9093C157.997 25.9093 158.583 26.096 158.896 26.4507C158.016 26.2507 157.279 26.3333 156.692 26.724C156.101 27.096 155.815 27.672 155.815 28.4507C155.815 31.2107 157.356 32.6067 160.421 32.6067C161.859 32.6067 163.164 32.268 164.349 31.6013C166.195 30.5267 167.117 28.864 167.117 26.596C167.117 24.9613 166.703 23.5053 165.891 22.2187C165.383 21.4067 164.011 20.1173 161.807 18.3747C160.164 18.8827 157.729 20.136 154.503 22.1427C144.511 28.3987 139.148 31.7027 138.429 32.0653C134.536 34.0573 130.749 35.6333 127.091 36.784C123.416 37.9507 120.08 38.5267 117.049 38.5267C113.967 38.5267 111.563 37.8827 109.825 36.596C107.817 35.1067 106.82 33.3693 106.82 31.364C104.568 30.9667 102.74 30 101.367 28.484C99.9787 26.976 99.284 25.1747 99.284 23.0653C99.284 20.6533 100.333 18.688 102.443 17.1453C104.229 15.8093 105.847 15.2427 107.287 15.4613C106.667 14.3773 105.888 13.6333 104.94 13.216C103.992 12.82 102.959 12.5987 101.823 12.5987C101.003 12.5987 100.315 12.6747 99.7493 12.836C99.852 12.2187 99.9013 11.7187 99.9013 11.3027C99.9013 10.1773 99.6893 9.06001 99.2493 7.94268C98.8093 6.84134 98.1147 5.81735 97.1333 4.84401C96.1587 5.81735 95.456 6.84134 95.016 7.94268C94.576 9.06001 94.372 10.2027 94.372 11.38C94.372 11.7347 94.424 12.2187 94.516 12.836C93.948 12.6747 93.2707 12.5987 92.4427 12.5987C91.3147 12.5987 90.2733 12.82 89.3253 13.216C88.3773 13.6333 87.5987 14.3773 86.9893 15.4613C88.4707 15.2427 90.088 15.784 91.8307 17.0707C93.932 18.5933 94.9813 20.6013 94.9813 23.0653C94.9813 25.1227 94.3387 26.86 93.052 28.3C91.5627 29.94 89.6973 30.9667 87.4453 31.364C87.4453 33.3693 86.5053 35.0547 84.6347 36.4427C82.7627 37.8227 80.284 38.5267 77.2187 38.5267C74.0413 38.5267 70.7133 37.984 67.26 36.9093C63.7893 35.8333 59.984 34.2267 55.844 32.0653C54.812 31.5 49.476 28.2133 39.8413 22.2187C36.5053 20.1173 34.0493 18.8387 32.4587 18.3747C30.3067 20.1173 28.968 21.38 28.4533 22.1427C27.588 23.4787 27.156 24.9613 27.156 26.596C27.156 28.864 28.036 30.5 29.8413 31.5333C31.068 32.2453 32.4067 32.6067 33.828 32.6067C35.2267 32.6067 36.336 32.2267 37.1893 31.4893C38.028 30.7373 38.4533 29.7293 38.4533 28.4507C38.4533 27.8907 38.2493 27.4013 37.844 26.9867C37.4267 26.5707 36.8587 26.3667 36.148 26.3667C35.7947 26.3667 35.5387 26.4013 35.3693 26.4507C35.692 26.096 36.276 25.9093 37.148 25.9093C38.0627 25.9093 38.8747 26.148 39.5707 26.596C40.2547 27.0627 40.604 27.7893 40.604 28.7547C40.604 30.5 40.0107 31.9213 38.8067 33.024C37.588 34.1333 36.0387 34.6827 34.1507 34.6827C32.1427 34.6827 30.4093 33.9533 28.916 32.516C27.276 30.94 26.4613 28.8413 26.4613 26.224C26.4613 24.5813 27.0213 22.964 28.156 21.38C29.0187 20.0853 30.1373 18.9667 31.5253 17.984C29.12 16.9613 26.2573 16.104 22.956 15.412C19.6533 14.716 17.2733 14.3773 15.844 14.3773C11.4733 14.3773 8.13734 15.2653 5.80934 17.0707C3.464 18.864 2.30401 21.1693 2.30401 23.9973C2.30401 26.7053 3.15867 28.672 4.844 29.9147C6.07334 30.8307 7.56267 31.2973 9.30667 31.2973C11.4067 31.2973 13.0307 30.7187 14.2 29.568C15.352 28.4173 15.9267 27.036 15.9267 25.4453C15.9267 24.3693 15.64 23.396 15.0733 22.5307L15.3853 22.456C15.7947 23.0653 16.0733 23.6587 16.224 24.216C16.3853 24.784 16.4613 25.3933 16.4613 26.0627C16.4613 28.06 15.64 29.8053 13.9973 31.2973C12.3547 32.7867 10.492 33.516 8.39067 33.516C5.716 33.516 3.59867 32.6067 2.00801 30.752C0.669339 29.1613 0 27.3747 0 25.3667C0 21.576 1.61734 18.636 4.844 16.536C7.664 14.6827 11.2787 13.752 15.6893 13.752C19.0773 13.752 22.456 14.0733 25.836 14.6827C28.2053 15.0987 30.8147 15.732 33.6853 16.612C35.9893 15.4787 38.6227 14.5627 41.568 13.8773C44.516 13.1747 47.5053 12.836 50.5253 12.836C53.9133 12.836 56.852 12.9893 59.3667 13.2947C61.8907 13.6067 64.6773 14.164 67.7493 14.9947C68.1747 14.0733 68.6827 13.3547 69.292 12.836C70.3253 11.9147 71.5933 11.448 73.1347 11.448C75.1427 11.448 76.6747 12.0413 77.76 13.216C78.6747 14.1907 79.1307 15.3667 79.1307 16.7573C79.1307 17.8307 78.8853 18.636 78.3693 19.136C81.0853 20.4747 83.1947 22.016 84.6853 23.7573C86.5133 25.86 87.4453 28.112 87.4453 30.5267C89.648 29.9667 91.3413 28.992 92.5107 27.604C93.492 26.4187 93.9813 25.0467 93.9813 23.4453C93.9813 21.1853 93.0773 19.44 91.2893 18.188C89.4947 16.9173 87.1587 16.292 84.2973 16.292C84.752 14.5547 85.6427 13.1147 86.9893 11.9893C88.3093 10.864 89.6227 10.2973 90.9013 10.2973C91.164 10.2973 91.3587 10.312 91.5107 10.3387C91.68 10.364 91.924 10.448 92.2893 10.6013C92.2373 10.3987 92.2133 10.008 92.2133 9.45068C92.2133 7.90935 92.5107 6.46135 93.128 5.06268C93.948 3.27601 95.2867 1.59068 97.1333 1.31837e-05C98.9267 1.52401 100.232 3.20001 101.052 4.99468C101.713 6.48401 102.052 7.97601 102.052 9.45068C102.052 10.008 102.025 10.3987 101.976 10.6013C102.391 10.3987 102.856 10.2973 103.364 10.2973C104.692 10.2973 106.023 10.8547 107.328 11.956C108.623 13.0573 109.513 14.5053 109.979 16.292C107.159 16.292 104.839 16.9173 103.019 18.188C101.189 19.44 100.281 21.1853 100.281 23.4453C100.281 25.4947 101.052 27.172 102.585 28.4507C103.771 29.424 105.177 30.1093 106.82 30.5267C106.82 27.5027 108.26 24.732 111.131 22.2187C112.356 21.1427 113.951 20.1173 115.899 19.136C115.391 18.5267 115.135 17.732 115.135 16.7573C115.135 15.3667 115.56 14.1907 116.437 13.216C117.508 12.0413 119.08 11.448 121.131 11.448C122.257 11.448 123.297 11.752 124.247 12.3467C125.185 12.9293 125.948 13.8027 126.516 14.9947C129.276 14.268 132.071 13.7347 134.899 13.3773C137.711 13.0133 140.656 12.836 143.737 12.836C146.719 12.836 149.667 13.1747 152.623 13.8773C155.56 14.5627 158.219 15.4787 160.588 16.612C164.213 15.5293 167.456 14.784 170.276 14.3773C173.088 13.972 175.849 13.752 178.573 13.752C182.927 13.752 186.541 14.6827 189.421 16.536C192.648 18.636 194.265 21.576 194.265 25.3667" fill="#231F20"/>
</svg>
