<svg width="64" height="80" viewBox="0 0 64 80" fill="none" xmlns="http://www.w3.org/2000/svg">
<path d="M36 76.0005V13.6565L57.172 34.8285C58.734 36.3905 61.266 36.3905 62.828 34.8285C64.39 33.2665 64.39 30.7335 62.828 29.1715L34.828 1.1715C33.266 -0.3905 30.733 -0.3905 29.172 1.1715L1.172 29.1715C0.391001 29.9525 0 30.9755 0 32.0005C0 33.0235 0.391001 34.0475 1.172 34.8285C2.734 36.3905 5.267 36.3905 6.828 34.8285L28 13.6565V76.0005C28 78.2095 29.791 80.0005 32 80.0005C34.209 80.0005 36 78.2095 36 76.0005Z" fill="#252330"/>
<path d="M36 76.0005V13.6565L57.172 34.8285C58.734 36.3905 61.266 36.3905 62.828 34.8285C64.39 33.2665 64.39 30.7335 62.828 29.1715L34.828 1.1715C33.266 -0.3905 30.733 -0.3905 29.172 1.1715L1.172 29.1715C0.391001 29.9525 0 30.9755 0 32.0005C0 33.0235 0.391001 34.0475 1.172 34.8285C2.734 36.3905 5.267 36.3905 6.828 34.8285L28 13.6565V76.0005C28 78.2095 29.791 80.0005 32 80.0005C34.209 80.0005 36 78.2095 36 76.0005Z" fill="url(#paint0_linear_1132_214)"/>
<defs>
<linearGradient id="paint0_linear_1132_214" x1="31.9998" y1="28.4047" x2="31.9998" y2="65.5459" gradientUnits="userSpaceOnUse">
<stop stop-color="#DFB46D"/>
<stop offset="1" stop-color="#E8CDA1"/>
</linearGradient>
</defs>
</svg>
