<svg width="278" height="109" viewBox="0 0 278 109" fill="none" xmlns="http://www.w3.org/2000/svg">
<path fill-rule="evenodd" clip-rule="evenodd" d="M3 49.0967C4.38071 49.0967 5.5 50.216 5.5 51.5967V75.0967H118C119.381 75.0967 120.5 76.216 120.5 77.5967C120.5 78.9774 119.381 80.0967 118 80.0967H4C2.067 80.0967 0.5 78.5297 0.5 76.5967V51.5967C0.5 50.216 1.61929 49.0967 3 49.0967Z" fill="white"/>
<path fill-rule="evenodd" clip-rule="evenodd" d="M25.0266 20.6054L56.7592 51.3908C57.7502 52.3522 59.3329 52.3282 60.2943 51.3372C61.2558 50.3462 61.2318 48.7635 60.2408 47.8021L27.4477 15.9879C26.0752 14.6563 23.888 14.6729 22.5358 16.0251L0.732233 37.8287C-0.244078 38.805 -0.244078 40.3879 0.732233 41.3642C1.70854 42.3405 3.29146 42.3405 4.26777 41.3642L25.0266 20.6054Z" fill="white"/>
<path fill-rule="evenodd" clip-rule="evenodd" d="M55 44.0967C56.3807 44.0967 57.5 45.216 57.5 46.5967V63.5967C57.5 64.9774 56.3807 66.0967 55 66.0967C53.6193 66.0967 52.5 64.9774 52.5 63.5967V46.5967C52.5 45.216 53.6193 44.0967 55 44.0967Z" fill="white"/>
<path fill-rule="evenodd" clip-rule="evenodd" d="M54.5266 20.6054L86.2592 51.3908C87.2502 52.3522 88.8329 52.3282 89.7943 51.3372C90.7558 50.3462 90.7318 48.7635 89.7408 47.8021L56.9477 15.9879C55.5752 14.6563 53.388 14.6729 52.0358 16.0251L38.2322 29.8287C37.2559 30.805 37.2559 32.3879 38.2322 33.3642C39.2085 34.3405 40.7915 34.3405 41.7678 33.3642L54.5266 20.6054Z" fill="white"/>
<path fill-rule="evenodd" clip-rule="evenodd" d="M84.5 44.0967C85.8807 44.0967 87 45.216 87 46.5967V63.5967C87 64.9774 85.8807 66.0967 84.5 66.0967C83.1193 66.0967 82 64.9774 82 63.5967V46.5967C82 45.216 83.1193 44.0967 84.5 44.0967Z" fill="white"/>
<path fill-rule="evenodd" clip-rule="evenodd" d="M84.5266 20.6054L116.259 51.3908C117.25 52.3522 118.833 52.3282 119.794 51.3372C120.756 50.3462 120.732 48.7635 119.741 47.8021L86.9477 15.9879C85.5752 14.6563 83.388 14.6729 82.0358 16.0251L68.2322 29.8287C67.2559 30.805 67.2559 32.3879 68.2322 33.3642C69.2085 34.3405 70.7915 34.3405 71.7678 33.3642L84.5266 20.6054Z" fill="white"/>
<path fill-rule="evenodd" clip-rule="evenodd" d="M114.5 44.0967C115.881 44.0967 117 45.216 117 46.5967V63.5967C117 64.9774 115.881 66.0967 114.5 66.0967C113.119 66.0967 112 64.9774 112 63.5967V46.5967C112 45.216 113.119 44.0967 114.5 44.0967Z" fill="white"/>
<path d="M153.538 18.0996H161.8C163.816 18.0996 165.607 18.4956 167.173 19.2876C168.739 20.0616 169.954 21.1686 170.818 22.6086C171.682 24.0306 172.114 25.6776 172.114 27.5496C172.114 29.4216 171.682 31.0776 170.818 32.5176C169.954 33.9396 168.739 35.0466 167.173 35.8386C165.607 36.6126 163.816 36.9996 161.8 36.9996H153.538V18.0996ZM161.638 34.0296C163.024 34.0296 164.239 33.7686 165.283 33.2466C166.345 32.7066 167.155 31.9506 167.713 30.9786C168.289 29.9886 168.577 28.8456 168.577 27.5496C168.577 26.2536 168.289 25.1196 167.713 24.1476C167.155 23.1576 166.345 22.4016 165.283 21.8796C164.239 21.3396 163.024 21.0696 161.638 21.0696H157.048V34.0296H161.638Z" fill="white"/>
<path d="M183.324 24.6876C184.296 23.1756 186.006 22.4196 188.454 22.4196V25.6326C188.166 25.5786 187.905 25.5516 187.671 25.5516C186.357 25.5516 185.331 25.9386 184.593 26.7126C183.855 27.4686 183.486 28.5666 183.486 30.0066V36.9996H180.111V22.5816H183.324V24.6876Z" fill="white"/>
<path d="M209.329 29.8716C209.329 30.1056 209.311 30.4386 209.275 30.8706H197.962C198.16 31.9326 198.673 32.7786 199.501 33.4086C200.347 34.0206 201.391 34.3266 202.633 34.3266C204.217 34.3266 205.522 33.8046 206.548 32.7606L208.357 34.8396C207.709 35.6136 206.89 36.1986 205.9 36.5946C204.91 36.9906 203.794 37.1886 202.552 37.1886C200.968 37.1886 199.573 36.8736 198.367 36.2436C197.161 35.6136 196.225 34.7406 195.559 33.6246C194.911 32.4906 194.587 31.2126 194.587 29.7906C194.587 28.3866 194.902 27.1266 195.532 26.0106C196.18 24.8766 197.071 23.9946 198.205 23.3646C199.339 22.7346 200.617 22.4196 202.039 22.4196C203.443 22.4196 204.694 22.7346 205.792 23.3646C206.908 23.9766 207.772 24.8496 208.384 25.9836C209.014 27.0996 209.329 28.3956 209.329 29.8716ZM202.039 25.1196C200.959 25.1196 200.041 25.4436 199.285 26.0916C198.547 26.7216 198.097 27.5676 197.935 28.6296H206.116C205.972 27.5856 205.531 26.7396 204.793 26.0916C204.055 25.4436 203.137 25.1196 202.039 25.1196Z" fill="white"/>
<path d="M222.273 22.4196C224.397 22.4196 226.017 22.9326 227.133 23.9586C228.267 24.9666 228.834 26.4966 228.834 28.5486V36.9996H225.648V35.2446C225.234 35.8746 224.64 36.3606 223.866 36.7026C223.11 37.0266 222.192 37.1886 221.112 37.1886C220.032 37.1886 219.087 37.0086 218.277 36.6486C217.467 36.2706 216.837 35.7576 216.387 35.1096C215.955 34.4436 215.739 33.6966 215.739 32.8686C215.739 31.5726 216.216 30.5376 217.17 29.7636C218.142 28.9716 219.663 28.5756 221.733 28.5756H225.459V28.3596C225.459 27.3516 225.153 26.5776 224.541 26.0376C223.947 25.4976 223.056 25.2276 221.868 25.2276C221.058 25.2276 220.257 25.3536 219.465 25.6056C218.691 25.8576 218.034 26.2086 217.494 26.6586L216.171 24.2016C216.927 23.6256 217.836 23.1846 218.898 22.8786C219.96 22.5726 221.085 22.4196 222.273 22.4196ZM221.814 34.7316C222.66 34.7316 223.407 34.5426 224.055 34.1646C224.721 33.7686 225.189 33.2106 225.459 32.4906V30.8166H221.976C220.032 30.8166 219.06 31.4556 219.06 32.7336C219.06 33.3456 219.303 33.8316 219.789 34.1916C220.275 34.5516 220.95 34.7316 221.814 34.7316Z" fill="white"/>
<path d="M255.954 22.4196C257.772 22.4196 259.212 22.9506 260.274 24.0126C261.336 25.0566 261.867 26.6316 261.867 28.7376V36.9996H258.492V29.1696C258.492 27.9096 258.213 26.9646 257.655 26.3346C257.097 25.6866 256.296 25.3626 255.252 25.3626C254.118 25.3626 253.209 25.7406 252.525 26.4966C251.841 27.2346 251.499 28.2966 251.499 29.6826V36.9996H248.124V29.1696C248.124 27.9096 247.845 26.9646 247.287 26.3346C246.729 25.6866 245.928 25.3626 244.884 25.3626C243.732 25.3626 242.814 25.7316 242.13 26.4696C241.464 27.2076 241.131 28.2786 241.131 29.6826V36.9996H237.756V22.5816H240.969V24.4176C241.509 23.7696 242.184 23.2746 242.994 22.9326C243.804 22.5906 244.704 22.4196 245.694 22.4196C246.774 22.4196 247.728 22.6266 248.556 23.0406C249.402 23.4366 250.068 24.0306 250.554 24.8226C251.148 24.0666 251.913 23.4816 252.849 23.0676C253.785 22.6356 254.82 22.4196 255.954 22.4196Z" fill="white"/>
<path d="M161.314 51.0996C162.952 51.0996 164.374 51.3696 165.58 51.9096C166.804 52.4496 167.74 53.2236 168.388 54.2316C169.036 55.2396 169.36 56.4366 169.36 57.8226C169.36 59.1906 169.036 60.3876 168.388 61.4136C167.74 62.4216 166.804 63.1956 165.58 63.7356C164.374 64.2756 162.952 64.5456 161.314 64.5456H157.048V69.9996H153.538V51.0996H161.314ZM161.152 61.5756C162.682 61.5756 163.843 61.2516 164.635 60.6036C165.427 59.9556 165.823 59.0286 165.823 57.8226C165.823 56.6166 165.427 55.6896 164.635 55.0416C163.843 54.3936 162.682 54.0696 161.152 54.0696H157.048V61.5756H161.152Z" fill="white"/>
<path d="M180.212 57.6876C181.184 56.1756 182.894 55.4196 185.342 55.4196V58.6326C185.054 58.5786 184.793 58.5516 184.559 58.5516C183.245 58.5516 182.219 58.9386 181.481 59.7126C180.743 60.4686 180.374 61.5666 180.374 63.0066V69.9996H176.999V55.5816H180.212V57.6876Z" fill="white"/>
<path d="M199.144 70.1886C197.686 70.1886 196.372 69.8736 195.202 69.2436C194.032 68.6136 193.114 67.7406 192.448 66.6246C191.8 65.4906 191.476 64.2126 191.476 62.7906C191.476 61.3686 191.8 60.0996 192.448 58.9836C193.114 57.8676 194.032 56.9946 195.202 56.3646C196.372 55.7346 197.686 55.4196 199.144 55.4196C200.62 55.4196 201.943 55.7346 203.113 56.3646C204.283 56.9946 205.192 57.8676 205.84 58.9836C206.506 60.0996 206.839 61.3686 206.839 62.7906C206.839 64.2126 206.506 65.4906 205.84 66.6246C205.192 67.7406 204.283 68.6136 203.113 69.2436C201.943 69.8736 200.62 70.1886 199.144 70.1886ZM199.144 67.2996C200.386 67.2996 201.412 66.8856 202.222 66.0576C203.032 65.2296 203.437 64.1406 203.437 62.7906C203.437 61.4406 203.032 60.3516 202.222 59.5236C201.412 58.6956 200.386 58.2816 199.144 58.2816C197.902 58.2816 196.876 58.6956 196.066 59.5236C195.274 60.3516 194.878 61.4406 194.878 62.7906C194.878 64.1406 195.274 65.2296 196.066 66.0576C196.876 66.8856 197.902 67.2996 199.144 67.2996Z" fill="white"/>
<path d="M213.171 75.4266C211.749 75.4266 210.669 75.1476 209.931 74.5896L210.903 72.0786C211.407 72.4566 212.064 72.6456 212.874 72.6456C213.504 72.6456 213.981 72.4476 214.305 72.0516C214.647 71.6736 214.818 71.1066 214.818 70.3506V55.5816H218.193V70.2696C218.193 71.8716 217.752 73.1316 216.87 74.0496C215.988 74.9676 214.755 75.4266 213.171 75.4266ZM216.492 53.2056C215.88 53.2056 215.367 53.0166 214.953 52.6386C214.539 52.2426 214.332 51.7566 214.332 51.1806C214.332 50.6046 214.539 50.1276 214.953 49.7496C215.367 49.3536 215.88 49.1556 216.492 49.1556C217.104 49.1556 217.617 49.3446 218.031 49.7226C218.445 50.0826 218.652 50.5416 218.652 51.0996C218.652 51.6936 218.445 52.1976 218.031 52.6116C217.635 53.0076 217.122 53.2056 216.492 53.2056Z" fill="white"/>
<path d="M240.763 62.8716C240.763 63.1056 240.745 63.4386 240.709 63.8706H229.396C229.594 64.9326 230.107 65.7786 230.935 66.4086C231.781 67.0206 232.825 67.3266 234.067 67.3266C235.651 67.3266 236.956 66.8046 237.982 65.7606L239.791 67.8396C239.143 68.6136 238.324 69.1986 237.334 69.5946C236.344 69.9906 235.228 70.1886 233.986 70.1886C232.402 70.1886 231.007 69.8736 229.801 69.2436C228.595 68.6136 227.659 67.7406 226.993 66.6246C226.345 65.4906 226.021 64.2126 226.021 62.7906C226.021 61.3866 226.336 60.1266 226.966 59.0106C227.614 57.8766 228.505 56.9946 229.639 56.3646C230.773 55.7346 232.051 55.4196 233.473 55.4196C234.877 55.4196 236.128 55.7346 237.226 56.3646C238.342 56.9766 239.206 57.8496 239.818 58.9836C240.448 60.0996 240.763 61.3956 240.763 62.8716ZM233.473 58.1196C232.393 58.1196 231.475 58.4436 230.719 59.0916C229.981 59.7216 229.531 60.5676 229.369 61.6296H237.55C237.406 60.5856 236.965 59.7396 236.227 59.0916C235.489 58.4436 234.571 58.1196 233.473 58.1196Z" fill="white"/>
<path d="M255.21 70.1886C253.716 70.1886 252.375 69.8736 251.187 69.2436C249.999 68.6136 249.072 67.7406 248.406 66.6246C247.74 65.4906 247.407 64.2126 247.407 62.7906C247.407 61.3686 247.74 60.0996 248.406 58.9836C249.072 57.8676 249.99 56.9946 251.16 56.3646C252.348 55.7346 253.698 55.4196 255.21 55.4196C256.632 55.4196 257.874 55.7076 258.936 56.2836C260.016 56.8596 260.826 57.6876 261.366 58.7676L258.774 60.2796C258.36 59.6136 257.838 59.1186 257.208 58.7946C256.596 58.4526 255.921 58.2816 255.183 58.2816C253.923 58.2816 252.879 58.6956 252.051 59.5236C251.223 60.3336 250.809 61.4226 250.809 62.7906C250.809 64.1586 251.214 65.2566 252.024 66.0846C252.852 66.8946 253.905 67.2996 255.183 67.2996C255.921 67.2996 256.596 67.1376 257.208 66.8136C257.838 66.4716 258.36 65.9676 258.774 65.3016L261.366 66.8136C260.808 67.8936 259.989 68.7306 258.909 69.3246C257.847 69.9006 256.614 70.1886 255.21 70.1886Z" fill="white"/>
<path d="M277.725 69.2166C277.329 69.5406 276.843 69.7836 276.267 69.9456C275.709 70.1076 275.115 70.1886 274.485 70.1886C272.901 70.1886 271.677 69.7746 270.813 68.9466C269.949 68.1186 269.517 66.9126 269.517 65.3286V58.3896H267.141V55.6896H269.517V52.3956H272.892V55.6896H276.753V58.3896H272.892V65.2476C272.892 65.9496 273.063 66.4896 273.405 66.8676C273.747 67.2276 274.242 67.4076 274.89 67.4076C275.646 67.4076 276.276 67.2096 276.78 66.8136L277.725 69.2166Z" fill="white"/>
<path d="M153.62 106.38H150.12L149.43 108H148.09L151.24 101H152.52L155.68 108H154.32L153.62 106.38ZM153.19 105.36L151.87 102.3L150.56 105.36H153.19Z" fill="white"/>
<path d="M159.634 101C160.24 101 160.767 101.1 161.214 101.3C161.667 101.5 162.014 101.787 162.254 102.16C162.494 102.534 162.614 102.977 162.614 103.49C162.614 103.997 162.494 104.44 162.254 104.82C162.014 105.194 161.667 105.48 161.214 105.68C160.767 105.88 160.24 105.98 159.634 105.98H158.054V108H156.754V101H159.634ZM159.574 104.88C160.14 104.88 160.57 104.76 160.864 104.52C161.157 104.28 161.304 103.937 161.304 103.49C161.304 103.044 161.157 102.7 160.864 102.46C160.57 102.22 160.14 102.1 159.574 102.1H158.054V104.88H159.574Z" fill="white"/>
<path d="M164.497 101L166.147 103.34L167.797 101H169.317L166.967 104.36L169.507 108H167.967L166.147 105.45L164.337 108H162.837L165.367 104.41L162.997 101H164.497Z" fill="white"/>
<path d="M170.387 101H171.667V105.97L175.427 101H176.637V108H175.357V103.04L171.597 108H170.387V101Z" fill="white"/>
<path d="M183.679 102.1H181.359V108H180.069V102.1H177.759V101H183.679V102.1Z" fill="white"/>
<path d="M190.05 106.91V108H184.8V101H189.91V102.09H186.1V103.91H189.48V104.98H186.1V106.91H190.05Z" fill="white"/>
<path d="M194.08 105.05H192.78V108H191.5V101H192.78V103.93H194.12L196.13 101H197.51L195.12 104.39L197.6 108H196.13L194.08 105.05Z" fill="white"/>
<path d="M203.494 102.1H201.174V108H199.884V102.1H197.574V101H203.494V102.1Z" fill="white"/>
<path d="M210.322 101L207.282 106.65C207.015 107.15 206.695 107.527 206.322 107.78C205.955 108.027 205.555 108.15 205.122 108.15C204.775 108.15 204.432 108.077 204.092 107.93L204.412 106.91C204.685 106.997 204.912 107.04 205.092 107.04C205.512 107.04 205.859 106.824 206.132 106.39L206.242 106.22L203.452 101H204.842L206.912 105.11L209.042 101H210.322Z" fill="white"/>
<path d="M214.106 101C214.713 101 215.24 101.1 215.686 101.3C216.14 101.5 216.486 101.787 216.726 102.16C216.966 102.534 217.086 102.977 217.086 103.49C217.086 103.997 216.966 104.44 216.726 104.82C216.486 105.194 216.14 105.48 215.686 105.68C215.24 105.88 214.713 105.98 214.106 105.98H212.526V108H211.226V101H214.106ZM214.046 104.88C214.613 104.88 215.043 104.76 215.336 104.52C215.63 104.28 215.776 103.937 215.776 103.49C215.776 103.044 215.63 102.7 215.336 102.46C215.043 102.22 214.613 102.1 214.046 102.1H212.526V104.88H214.046Z" fill="white"/>
<path d="M224.536 101V108H223.236V105H219.616V108H218.316V101H219.616V103.89H223.236V101H224.536Z" fill="white"/>
<path d="M229.74 108.1C229.026 108.1 228.383 107.947 227.81 107.64C227.236 107.327 226.786 106.897 226.46 106.35C226.133 105.797 225.97 105.18 225.97 104.5C225.97 103.82 226.133 103.207 226.46 102.66C226.786 102.107 227.236 101.677 227.81 101.37C228.383 101.057 229.026 100.9 229.74 100.9C230.453 100.9 231.096 101.057 231.67 101.37C232.243 101.677 232.693 102.104 233.02 102.65C233.346 103.197 233.51 103.814 233.51 104.5C233.51 105.187 233.346 105.804 233.02 106.35C232.693 106.897 232.243 107.327 231.67 107.64C231.096 107.947 230.453 108.1 229.74 108.1ZM229.74 106.96C230.206 106.96 230.626 106.857 231 106.65C231.373 106.437 231.666 106.144 231.88 105.77C232.093 105.39 232.2 104.967 232.2 104.5C232.2 104.034 232.093 103.614 231.88 103.24C231.666 102.86 231.373 102.567 231 102.36C230.626 102.147 230.206 102.04 229.74 102.04C229.273 102.04 228.853 102.147 228.48 102.36C228.106 102.567 227.813 102.86 227.6 103.24C227.386 103.614 227.28 104.034 227.28 104.5C227.28 104.967 227.386 105.39 227.6 105.77C227.813 106.144 228.106 106.437 228.48 106.65C228.853 106.857 229.273 106.96 229.74 106.96Z" fill="white"/>
<path d="M240.197 106.91V108H234.947V101H240.057V102.09H236.247V103.91H239.627V104.98H236.247V106.91H240.197Z" fill="white"/>
<path d="M244.42 101H249.87V102.07H245.7V103.79H247.77C248.61 103.79 249.246 103.967 249.68 104.32C250.12 104.667 250.34 105.17 250.34 105.83C250.34 106.524 250.1 107.06 249.62 107.44C249.14 107.814 248.456 108 247.57 108H244.42V101ZM247.5 107C248 107 248.38 106.904 248.64 106.71C248.9 106.517 249.03 106.237 249.03 105.87C249.03 105.15 248.52 104.79 247.5 104.79H245.7V107H247.5Z" fill="white"/>
<path d="M257.753 100.9C258.44 100.9 259.057 101.057 259.603 101.37C260.157 101.677 260.59 102.104 260.903 102.65C261.217 103.197 261.373 103.814 261.373 104.5C261.373 105.187 261.217 105.804 260.903 106.35C260.59 106.897 260.157 107.327 259.603 107.64C259.057 107.947 258.44 108.1 257.753 108.1C257.127 108.1 256.553 107.97 256.033 107.71C255.52 107.45 255.097 107.087 254.763 106.62C254.437 106.154 254.233 105.624 254.153 105.03H253.053V108H251.773V101H253.053V103.87H254.173C254.267 103.29 254.477 102.777 254.803 102.33C255.137 101.877 255.557 101.527 256.063 101.28C256.577 101.027 257.14 100.9 257.753 100.9ZM257.753 106.96C258.187 106.96 258.58 106.857 258.933 106.65C259.287 106.444 259.563 106.154 259.763 105.78C259.963 105.407 260.063 104.98 260.063 104.5C260.063 104.02 259.963 103.594 259.763 103.22C259.563 102.847 259.287 102.557 258.933 102.35C258.58 102.144 258.187 102.04 257.753 102.04C257.32 102.04 256.927 102.144 256.573 102.35C256.227 102.557 255.95 102.847 255.743 103.22C255.543 103.594 255.443 104.02 255.443 104.5C255.443 104.98 255.543 105.407 255.743 105.78C255.95 106.154 256.227 106.444 256.573 106.65C256.927 106.857 257.32 106.96 257.753 106.96Z" fill="white"/>
<path d="M265.708 101C266.314 101 266.841 101.1 267.288 101.3C267.741 101.5 268.088 101.787 268.328 102.16C268.568 102.534 268.688 102.977 268.688 103.49C268.688 103.997 268.568 104.44 268.328 104.82C268.088 105.194 267.741 105.48 267.288 105.68C266.841 105.88 266.314 105.98 265.708 105.98H264.128V108H262.828V101H265.708ZM265.648 104.88C266.214 104.88 266.644 104.76 266.938 104.52C267.231 104.28 267.378 103.937 267.378 103.49C267.378 103.044 267.231 102.7 266.938 102.46C266.644 102.22 266.214 102.1 265.648 102.1H264.128V104.88H265.648Z" fill="white"/>
<path d="M273.255 108.1C272.542 108.1 271.899 107.947 271.325 107.64C270.752 107.327 270.302 106.897 269.975 106.35C269.649 105.797 269.485 105.18 269.485 104.5C269.485 103.82 269.649 103.207 269.975 102.66C270.302 102.107 270.752 101.677 271.325 101.37C271.899 101.057 272.542 100.9 273.255 100.9C273.969 100.9 274.612 101.057 275.185 101.37C275.759 101.677 276.209 102.104 276.535 102.65C276.862 103.197 277.025 103.814 277.025 104.5C277.025 105.187 276.862 105.804 276.535 106.35C276.209 106.897 275.759 107.327 275.185 107.64C274.612 107.947 273.969 108.1 273.255 108.1ZM273.255 106.96C273.722 106.96 274.142 106.857 274.515 106.65C274.889 106.437 275.182 106.144 275.395 105.77C275.609 105.39 275.715 104.967 275.715 104.5C275.715 104.034 275.609 103.614 275.395 103.24C275.182 102.86 274.889 102.567 274.515 102.36C274.142 102.147 273.722 102.04 273.255 102.04C272.789 102.04 272.369 102.147 271.995 102.36C271.622 102.567 271.329 102.86 271.115 103.24C270.902 103.614 270.795 104.034 270.795 104.5C270.795 104.967 270.902 105.39 271.115 105.77C271.329 106.144 271.622 106.437 271.995 106.65C272.369 106.857 272.789 106.96 273.255 106.96Z" fill="white"/>
<path fill-rule="evenodd" clip-rule="evenodd" d="M152.5 1C152.5 0.447715 152.948 0 153.5 0H272C272.552 0 273 0.447715 273 1C273 1.55228 272.552 2 272 2H153.5C152.948 2 152.5 1.55228 152.5 1Z" fill="white"/>
<path fill-rule="evenodd" clip-rule="evenodd" d="M152.5 88C152.5 87.4477 152.948 87 153.5 87H272C272.552 87 273 87.4477 273 88C273 88.5523 272.552 89 272 89H153.5C152.948 89 152.5 88.5523 152.5 88Z" fill="white"/>
</svg>
