<svg width="259" height="67" viewBox="0 0 259 67" fill="none" xmlns="http://www.w3.org/2000/svg">
<path fill-rule="evenodd" clip-rule="evenodd" d="M3 35.0967C4.38071 35.0967 5.5 36.216 5.5 37.5967V61.0967H118C119.381 61.0967 120.5 62.216 120.5 63.5967C120.5 64.9774 119.381 66.0967 118 66.0967H4C2.067 66.0967 0.5 64.5297 0.5 62.5967V37.5967C0.5 36.216 1.61929 35.0967 3 35.0967Z" fill="white"/>
<path fill-rule="evenodd" clip-rule="evenodd" d="M25.0266 6.60537L56.7592 37.3908C57.7502 38.3522 59.3329 38.3282 60.2943 37.3372C61.2558 36.3462 61.2318 34.7635 60.2408 33.8021L27.4477 1.98792C26.0752 0.656347 23.888 0.672908 22.5358 2.02513L0.732233 23.8287C-0.244078 24.805 -0.244078 26.3879 0.732233 27.3642C1.70854 28.3405 3.29146 28.3405 4.26777 27.3642L25.0266 6.60537Z" fill="white"/>
<path fill-rule="evenodd" clip-rule="evenodd" d="M55 30.0967C56.3807 30.0967 57.5 31.216 57.5 32.5967V49.5967C57.5 50.9774 56.3807 52.0967 55 52.0967C53.6193 52.0967 52.5 50.9774 52.5 49.5967V32.5967C52.5 31.216 53.6193 30.0967 55 30.0967Z" fill="white"/>
<path fill-rule="evenodd" clip-rule="evenodd" d="M54.5266 6.60537L86.2592 37.3908C87.2502 38.3522 88.8329 38.3282 89.7943 37.3372C90.7558 36.3462 90.7318 34.7635 89.7408 33.8021L56.9477 1.98792C55.5752 0.656346 53.388 0.672908 52.0358 2.02513L38.2322 15.8287C37.2559 16.805 37.2559 18.3879 38.2322 19.3642C39.2085 20.3405 40.7915 20.3405 41.7678 19.3642L54.5266 6.60537Z" fill="white"/>
<path fill-rule="evenodd" clip-rule="evenodd" d="M84.5 30.0967C85.8807 30.0967 87 31.216 87 32.5967V49.5967C87 50.9774 85.8807 52.0967 84.5 52.0967C83.1193 52.0967 82 50.9774 82 49.5967V32.5967C82 31.216 83.1193 30.0967 84.5 30.0967Z" fill="white"/>
<path fill-rule="evenodd" clip-rule="evenodd" d="M84.5266 6.60537L116.259 37.3908C117.25 38.3522 118.833 38.3282 119.794 37.3372C120.756 36.3462 120.732 34.7635 119.741 33.8021L86.9477 1.98792C85.5752 0.656346 83.388 0.672908 82.0358 2.02513L68.2322 15.8287C67.2559 16.805 67.2559 18.3879 68.2322 19.3642C69.2085 20.3405 70.7915 20.3405 71.7678 19.3642L84.5266 6.60537Z" fill="white"/>
<path fill-rule="evenodd" clip-rule="evenodd" d="M114.5 30.0967C115.881 30.0967 117 31.216 117 32.5967V49.5967C117 50.9774 115.881 52.0967 114.5 52.0967C113.119 52.0967 112 50.9774 112 49.5967V32.5967C112 31.216 113.119 30.0967 114.5 30.0967Z" fill="white"/>
<path d="M143.625 10.5H151C152.85 10.5 154.492 10.8667 155.925 11.6C157.358 12.3333 158.467 13.3667 159.25 14.7C160.05 16.0167 160.45 17.5333 160.45 19.25C160.45 20.9667 160.05 22.4917 159.25 23.825C158.467 25.1417 157.358 26.1667 155.925 26.9C154.492 27.6333 152.85 28 151 28H143.625V10.5ZM150.85 25.825C152.267 25.825 153.508 25.55 154.575 25C155.658 24.45 156.492 23.6833 157.075 22.7C157.658 21.7 157.95 20.55 157.95 19.25C157.95 17.95 157.658 16.8083 157.075 15.825C156.492 14.825 155.658 14.05 154.575 13.5C153.508 12.95 152.267 12.675 150.85 12.675H146.125V25.825H150.85Z" fill="white"/>
<path d="M169.979 16.975C170.396 16.2083 171.013 15.625 171.829 15.225C172.646 14.825 173.638 14.625 174.804 14.625V16.95C174.671 16.9333 174.488 16.925 174.254 16.925C172.954 16.925 171.929 17.3167 171.179 18.1C170.446 18.8667 170.079 19.9667 170.079 21.4V28H167.679V14.75H169.979V16.975Z" fill="white"/>
<path d="M193.365 21.45C193.365 21.6333 193.349 21.875 193.315 22.175H182.565C182.715 23.3417 183.224 24.2833 184.09 25C184.974 25.7 186.065 26.05 187.365 26.05C188.949 26.05 190.224 25.5167 191.19 24.45L192.515 26C191.915 26.7 191.165 27.2333 190.265 27.6C189.382 27.9667 188.39 28.15 187.29 28.15C185.89 28.15 184.649 27.8667 183.565 27.3C182.482 26.7167 181.64 25.9083 181.04 24.875C180.457 23.8417 180.165 22.675 180.165 21.375C180.165 20.0917 180.449 18.9333 181.015 17.9C181.599 16.8667 182.39 16.0667 183.39 15.5C184.407 14.9167 185.549 14.625 186.815 14.625C188.082 14.625 189.207 14.9167 190.19 15.5C191.19 16.0667 191.965 16.8667 192.515 17.9C193.082 18.9333 193.365 20.1167 193.365 21.45ZM186.815 16.65C185.665 16.65 184.699 17 183.915 17.7C183.149 18.4 182.699 19.3167 182.565 20.45H191.065C190.932 19.3333 190.474 18.425 189.69 17.725C188.924 17.0083 187.965 16.65 186.815 16.65Z" fill="white"/>
<path d="M204.907 14.625C206.74 14.625 208.14 15.075 209.107 15.975C210.09 16.875 210.582 18.2167 210.582 20V28H208.307V26.25C207.907 26.8667 207.332 27.3417 206.582 27.675C205.848 27.9917 204.973 28.15 203.957 28.15C202.473 28.15 201.282 27.7917 200.382 27.075C199.498 26.3583 199.057 25.4167 199.057 24.25C199.057 23.0833 199.482 22.15 200.332 21.45C201.182 20.7333 202.532 20.375 204.382 20.375H208.182V19.9C208.182 18.8667 207.882 18.075 207.282 17.525C206.682 16.975 205.798 16.7 204.632 16.7C203.848 16.7 203.082 16.8333 202.332 17.1C201.582 17.35 200.948 17.6917 200.432 18.125L199.432 16.325C200.115 15.775 200.932 15.3583 201.882 15.075C202.832 14.775 203.84 14.625 204.907 14.625ZM204.357 26.3C205.273 26.3 206.065 26.1 206.732 25.7C207.398 25.2833 207.882 24.7 208.182 23.95V22.1H204.482C202.448 22.1 201.432 22.7833 201.432 24.15C201.432 24.8167 201.69 25.3417 202.207 25.725C202.723 26.1083 203.44 26.3 204.357 26.3Z" fill="white"/>
<path d="M235.348 14.625C237.015 14.625 238.331 15.1083 239.298 16.075C240.281 17.0417 240.773 18.475 240.773 20.375V28H238.373V20.65C238.373 19.3667 238.073 18.4 237.473 17.75C236.89 17.1 236.048 16.775 234.948 16.775C233.731 16.775 232.765 17.1583 232.048 17.925C231.331 18.675 230.973 19.7583 230.973 21.175V28H228.573V20.65C228.573 19.3667 228.273 18.4 227.673 17.75C227.09 17.1 226.248 16.775 225.148 16.775C223.931 16.775 222.965 17.1583 222.248 17.925C221.531 18.675 221.173 19.7583 221.173 21.175V28H218.773V14.75H221.073V16.725C221.556 16.0417 222.19 15.525 222.973 15.175C223.756 14.8083 224.648 14.625 225.648 14.625C226.681 14.625 227.598 14.8333 228.398 15.25C229.198 15.6667 229.815 16.275 230.248 17.075C230.748 16.3083 231.44 15.7083 232.323 15.275C233.223 14.8417 234.231 14.625 235.348 14.625Z" fill="white"/>
<path d="M150.45 36.5002C152.717 36.5002 154.5 37.0419 155.8 38.1252C157.1 39.2085 157.75 40.7002 157.75 42.6002C157.75 44.5002 157.1 45.9919 155.8 47.0752C154.5 48.1585 152.717 48.7002 150.45 48.7002H146.125V54.0002H143.625V36.5002H150.45ZM150.375 46.5252C151.958 46.5252 153.167 46.1919 154 45.5252C154.833 44.8419 155.25 43.8669 155.25 42.6002C155.25 41.3335 154.833 40.3669 154 39.7002C153.167 39.0169 151.958 38.6752 150.375 38.6752H146.125V46.5252H150.375Z" fill="white"/>
<path d="M166.903 42.9752C167.32 42.2085 167.936 41.6252 168.753 41.2252C169.57 40.8252 170.561 40.6252 171.728 40.6252V42.9502C171.595 42.9335 171.411 42.9252 171.178 42.9252C169.878 42.9252 168.853 43.3169 168.103 44.1002C167.37 44.8669 167.003 45.9669 167.003 47.4002V54.0002H164.603V40.7502H166.903V42.9752Z" fill="white"/>
<path d="M183.989 54.1502C182.672 54.1502 181.489 53.8585 180.439 53.2752C179.389 52.6919 178.564 51.8919 177.964 50.8752C177.381 49.8419 177.089 48.6752 177.089 47.3752C177.089 46.0752 177.381 44.9169 177.964 43.9002C178.564 42.8669 179.389 42.0669 180.439 41.5002C181.489 40.9169 182.672 40.6252 183.989 40.6252C185.306 40.6252 186.481 40.9169 187.514 41.5002C188.564 42.0669 189.381 42.8669 189.964 43.9002C190.564 44.9169 190.864 46.0752 190.864 47.3752C190.864 48.6752 190.564 49.8419 189.964 50.8752C189.381 51.8919 188.564 52.6919 187.514 53.2752C186.481 53.8585 185.306 54.1502 183.989 54.1502ZM183.989 52.0502C184.839 52.0502 185.597 51.8585 186.264 51.4752C186.947 51.0752 187.481 50.5252 187.864 49.8252C188.247 49.1085 188.439 48.2919 188.439 47.3752C188.439 46.4585 188.247 45.6502 187.864 44.9502C187.481 44.2335 186.947 43.6835 186.264 43.3002C185.597 42.9169 184.839 42.7252 183.989 42.7252C183.139 42.7252 182.372 42.9169 181.689 43.3002C181.022 43.6835 180.489 44.2335 180.089 44.9502C179.706 45.6502 179.514 46.4585 179.514 47.3752C179.514 48.2919 179.706 49.1085 180.089 49.8252C180.489 50.5252 181.022 51.0752 181.689 51.4752C182.372 51.8585 183.139 52.0502 183.989 52.0502Z" fill="white"/>
<path d="M196.233 59.0002C195.65 59.0002 195.108 58.9335 194.608 58.8002C194.108 58.6669 193.692 58.4669 193.358 58.2002L194.133 56.3502C194.633 56.7669 195.283 56.9752 196.083 56.9752C196.717 56.9752 197.2 56.7752 197.533 56.3752C197.883 55.9919 198.058 55.4169 198.058 54.6502V40.7502H200.458V54.6002C200.458 55.9669 200.092 57.0419 199.358 57.8252C198.625 58.6085 197.583 59.0002 196.233 59.0002ZM199.258 38.2002C198.792 38.2002 198.4 38.0502 198.083 37.7502C197.783 37.4502 197.633 37.0835 197.633 36.6502C197.633 36.2169 197.783 35.8502 198.083 35.5502C198.4 35.2335 198.792 35.0752 199.258 35.0752C199.725 35.0752 200.108 35.2252 200.408 35.5252C200.725 35.8085 200.883 36.1669 200.883 36.6002C200.883 37.0502 200.725 37.4335 200.408 37.7502C200.108 38.0502 199.725 38.2002 199.258 38.2002Z" fill="white"/>
<path d="M220.763 47.4502C220.763 47.6335 220.746 47.8752 220.713 48.1752H209.963C210.113 49.3419 210.621 50.2835 211.488 51.0002C212.371 51.7002 213.463 52.0502 214.763 52.0502C216.346 52.0502 217.621 51.5169 218.588 50.4502L219.913 52.0002C219.313 52.7002 218.563 53.2335 217.663 53.6002C216.779 53.9669 215.788 54.1502 214.688 54.1502C213.288 54.1502 212.046 53.8669 210.963 53.3002C209.879 52.7169 209.038 51.9085 208.438 50.8752C207.854 49.8419 207.563 48.6752 207.563 47.3752C207.563 46.0919 207.846 44.9335 208.413 43.9002C208.996 42.8669 209.788 42.0669 210.788 41.5002C211.804 40.9169 212.946 40.6252 214.213 40.6252C215.479 40.6252 216.604 40.9169 217.588 41.5002C218.588 42.0669 219.363 42.8669 219.913 43.9002C220.479 44.9335 220.763 46.1169 220.763 47.4502ZM214.213 42.6502C213.063 42.6502 212.096 43.0002 211.313 43.7002C210.546 44.4002 210.096 45.3169 209.963 46.4502H218.463C218.329 45.3335 217.871 44.4252 217.088 43.7252C216.321 43.0085 215.363 42.6502 214.213 42.6502Z" fill="white"/>
<path d="M233.62 54.1502C232.27 54.1502 231.062 53.8585 229.995 53.2752C228.945 52.6919 228.12 51.8919 227.52 50.8752C226.92 49.8419 226.62 48.6752 226.62 47.3752C226.62 46.0752 226.92 44.9169 227.52 43.9002C228.12 42.8669 228.945 42.0669 229.995 41.5002C231.062 40.9169 232.27 40.6252 233.62 40.6252C234.82 40.6252 235.887 40.8669 236.82 41.3502C237.77 41.8335 238.504 42.5335 239.02 43.4502L237.195 44.6252C236.779 43.9919 236.262 43.5169 235.645 43.2002C235.029 42.8835 234.345 42.7252 233.595 42.7252C232.729 42.7252 231.945 42.9169 231.245 43.3002C230.562 43.6835 230.02 44.2335 229.62 44.9502C229.237 45.6502 229.045 46.4585 229.045 47.3752C229.045 48.3085 229.237 49.1335 229.62 49.8502C230.02 50.5502 230.562 51.0919 231.245 51.4752C231.945 51.8585 232.729 52.0502 233.595 52.0502C234.345 52.0502 235.029 51.8919 235.645 51.5752C236.262 51.2585 236.779 50.7835 237.195 50.1502L239.02 51.3002C238.504 52.2169 237.77 52.9252 236.82 53.4252C235.887 53.9085 234.82 54.1502 233.62 54.1502Z" fill="white"/>
<path d="M253.498 53.2252C253.148 53.5252 252.715 53.7585 252.198 53.9252C251.682 54.0752 251.148 54.1502 250.598 54.1502C249.265 54.1502 248.232 53.7919 247.498 53.0752C246.765 52.3585 246.398 51.3335 246.398 50.0002V42.7252H244.148V40.7502H246.398V37.8502H248.798V40.7502H252.598V42.7252H248.798V49.9002C248.798 50.6169 248.973 51.1669 249.323 51.5502C249.69 51.9335 250.207 52.1252 250.873 52.1252C251.607 52.1252 252.232 51.9169 252.748 51.5002L253.498 53.2252Z" fill="white"/>
<path fill-rule="evenodd" clip-rule="evenodd" d="M138.5 1C138.5 0.447715 138.948 0 139.5 0H258C258.552 0 259 0.447715 259 1C259 1.55228 258.552 2 258 2H139.5C138.948 2 138.5 1.55228 138.5 1Z" fill="white"/>
<path fill-rule="evenodd" clip-rule="evenodd" d="M138.5 64C138.5 63.4477 138.948 63 139.5 63H258C258.552 63 259 63.4477 259 64C259 64.5523 258.552 65 258 65H139.5C138.948 65 138.5 64.5523 138.5 64Z" fill="white"/>
</svg>
