<svg width="21" height="15" viewBox="0 0 21 15" fill="none" xmlns="http://www.w3.org/2000/svg">
<path fill-rule="evenodd" clip-rule="evenodd" d="M1.8698 1.15878C1.42612 1.30241 1.10526 1.719 1.10526 2.21053V12.1579C1.10526 12.7683 1.60011 13.2632 2.21053 13.2632H18.7895C19.3999 13.2632 19.8947 12.7683 19.8947 12.1579V2.21053C19.8947 1.71915 19.5741 1.30266 19.1306 1.15891L12.0386 8.25103C11.1891 9.10056 9.81174 9.10057 8.96221 8.25106L1.8698 1.15878ZM3.3545 1.10526H17.6461L11.2695 7.48194C10.8447 7.9067 10.1561 7.90671 9.7313 7.48195L3.3545 1.10526ZM0 2.21053C0 0.989689 0.989686 0 2.21053 0H18.7895C20.0103 0 21 0.989686 21 2.21053V12.1579C21 13.3787 20.0103 14.3684 18.7895 14.3684H2.21053C0.989686 14.3684 0 13.3787 0 12.1579V2.21053Z" fill="url(#paint0_linear_1107_273)"/>
<defs>
<linearGradient id="paint0_linear_1107_273" x1="10.5002" y1="6.31358" x2="10.5002" y2="1.76891" gradientUnits="userSpaceOnUse">
<stop stop-color="#DFB46D"/>
<stop offset="1" stop-color="#E8CDA1"/>
</linearGradient>
</defs>
</svg>
