<svg width="579" height="501" viewBox="0 0 579 501" fill="none" xmlns="http://www.w3.org/2000/svg">
<path d="M282.027 2.99674C279.085 4.46774 230.203 52.5583 139.793 142.968C20.0754 262.912 1.97074 281.356 0.839198 285.543C-1.65019 293.803 1.51812 301.95 8.75999 305.684C13.7388 308.287 22.5648 307.834 26.412 305.005C28.2225 303.647 88.0811 244.128 159.594 172.841L289.382 43.1665L419.283 172.841C490.684 244.128 550.542 303.647 552.353 305.005C556.2 307.834 565.026 308.287 570.005 305.684C577.247 301.95 580.415 293.803 577.925 285.543C576.794 281.356 558.689 262.912 438.972 142.968C345.28 49.2768 299.793 4.46774 296.624 2.99674C290.853 0.167886 287.685 0.167886 282.027 2.99674Z" fill="#252330"/>
<path d="M282.027 2.99674C279.085 4.46774 230.203 52.5583 139.793 142.968C20.0754 262.912 1.97074 281.356 0.839198 285.543C-1.65019 293.803 1.51812 301.95 8.75999 305.684C13.7388 308.287 22.5648 307.834 26.412 305.005C28.2225 303.647 88.0811 244.128 159.594 172.841L289.382 43.1665L419.283 172.841C490.684 244.128 550.542 303.647 552.353 305.005C556.2 307.834 565.026 308.287 570.005 305.684C577.247 301.95 580.415 293.803 577.925 285.543C576.794 281.356 558.689 262.912 438.972 142.968C345.28 49.2768 299.793 4.46774 296.624 2.99674C290.853 0.167886 287.685 0.167886 282.027 2.99674Z" fill="url(#paint0_linear_1110_437)"/>
<path d="M89.0994 275.472C83.4417 278.301 80.3866 283.619 79.4813 291.879C79.1419 295.727 78.9156 341.441 79.1419 393.379L79.4813 487.862L82.197 492.275C83.8944 494.991 86.7232 497.367 89.5521 498.725C93.9651 500.762 101.546 500.875 289.382 500.875C477.218 500.875 484.8 500.762 489.213 498.725C492.041 497.367 494.87 494.991 496.568 492.275L499.283 487.862V387.155C499.283 288.485 499.283 286.335 497.02 282.601C493.852 277.169 489.665 274.454 483.668 273.775C477.105 272.983 470.542 276.49 467.148 282.487C464.771 286.787 464.771 287.24 464.771 376.292V465.797H289.382H113.993V376.292C113.993 287.24 113.993 286.787 111.617 282.487C107.091 274.454 97.2465 271.285 89.0994 275.472Z" fill="#252330"/>
<path d="M89.0994 275.472C83.4417 278.301 80.3866 283.619 79.4813 291.879C79.1419 295.727 78.9156 341.441 79.1419 393.379L79.4813 487.862L82.197 492.275C83.8944 494.991 86.7232 497.367 89.5521 498.725C93.9651 500.762 101.546 500.875 289.382 500.875C477.218 500.875 484.8 500.762 489.213 498.725C492.041 497.367 494.87 494.991 496.568 492.275L499.283 487.862V387.155C499.283 288.485 499.283 286.335 497.02 282.601C493.852 277.169 489.665 274.454 483.668 273.775C477.105 272.983 470.542 276.49 467.148 282.487C464.771 286.787 464.771 287.24 464.771 376.292V465.797H289.382H113.993V376.292C113.993 287.24 113.993 286.787 111.617 282.487C107.091 274.454 97.2465 271.285 89.0994 275.472Z" fill="url(#paint1_linear_1110_437)"/>
<defs>
<linearGradient id="paint0_linear_1110_437" x1="289.382" y1="198.569" x2="289.382" y2="56.2591" gradientUnits="userSpaceOnUse">
<stop stop-color="#DFB46D"/>
<stop offset="1" stop-color="#E8CDA1"/>
</linearGradient>
<linearGradient id="paint1_linear_1110_437" x1="289.167" y1="420.188" x2="289.167" y2="314.683" gradientUnits="userSpaceOnUse">
<stop stop-color="#DFB46D"/>
<stop offset="1" stop-color="#E8CDA1"/>
</linearGradient>
</defs>
</svg>
