<svg width="526" height="501" viewBox="0 0 526 501" fill="none" xmlns="http://www.w3.org/2000/svg">
<path d="M253.025 2.47543C249.732 3.71022 221.229 29.1261 126.871 115.046C-8.23424 238.113 0.10054 229.778 0.10054 243.155C0.203439 254.268 5.96576 263.117 16.0498 267.748C20.1657 269.6 23.2527 269.909 42.5976 270.217L64.4121 270.629V379.907C64.4121 501.739 63.8976 493.507 71.5121 498.549L75.0107 500.916H144.673H214.335L217.834 498.549C225.242 493.61 224.934 496.8 224.934 421.89V354.8H263.006H301.079V421.89C301.079 496.8 300.77 493.61 308.179 498.549L311.677 500.916H381.34H451.002L454.5 498.549C462.115 493.507 461.6 501.739 461.6 379.804V270.629L483.518 270.217C502.863 269.909 505.847 269.6 509.963 267.748C520.15 263.117 525.809 254.268 525.912 243.155C525.912 231.116 524.574 229.264 496.997 204.259L472.919 182.445V113.503C472.919 36.6377 473.228 40.0334 465.819 35.0943L462.321 32.7276H404.08C348.206 32.7276 345.737 32.8305 342.547 34.7856C337.608 37.7696 335.755 41.3711 335.138 49.1914L334.521 56.0856L305.915 30.0522C275.045 2.06384 273.09 0.726159 262.595 0.931956C259.713 0.931956 255.392 1.65225 253.025 2.47543ZM302.313 68.845C323.408 88.087 342.341 104.654 344.296 105.477C351.602 108.667 361.583 104.962 364.464 97.9652C365.493 95.5986 365.905 89.9392 365.905 79.0319V63.5971H403.977H442.05V128.012C442.05 183.268 442.255 192.838 443.593 195.719C444.416 197.468 454.809 207.758 466.642 218.459L488.148 238.01L465.305 238.525C452.237 238.833 441.432 239.554 439.992 240.274C436.699 241.714 433.2 245.522 431.863 249.123C431.039 251.078 430.731 286.372 430.731 361.077V470.046H381.34H331.948V402.854C331.948 328.767 332.154 331.545 325.466 326.606C322.584 324.445 321.555 324.445 263.006 324.445C204.457 324.445 203.428 324.445 200.547 326.606C193.858 331.545 194.064 328.767 194.064 402.854V470.046H144.673H95.2817V361.077C95.2817 286.372 94.973 251.078 94.1498 249.123C92.8121 245.522 89.3136 241.714 86.0208 240.274C84.5802 239.554 73.7759 238.833 60.7078 238.525L37.9672 238.01L150.024 135.832C211.66 79.7522 262.492 33.7566 263.006 33.7566C263.521 33.7566 281.219 49.5 302.313 68.845Z" fill="#252330"/>
<path d="M253.025 2.47543C249.732 3.71022 221.229 29.1261 126.871 115.046C-8.23424 238.113 0.10054 229.778 0.10054 243.155C0.203439 254.268 5.96576 263.117 16.0498 267.748C20.1657 269.6 23.2527 269.909 42.5976 270.217L64.4121 270.629V379.907C64.4121 501.739 63.8976 493.507 71.5121 498.549L75.0107 500.916H144.673H214.335L217.834 498.549C225.242 493.61 224.934 496.8 224.934 421.89V354.8H263.006H301.079V421.89C301.079 496.8 300.77 493.61 308.179 498.549L311.677 500.916H381.34H451.002L454.5 498.549C462.115 493.507 461.6 501.739 461.6 379.804V270.629L483.518 270.217C502.863 269.909 505.847 269.6 509.963 267.748C520.15 263.117 525.809 254.268 525.912 243.155C525.912 231.116 524.574 229.264 496.997 204.259L472.919 182.445V113.503C472.919 36.6377 473.228 40.0334 465.819 35.0943L462.321 32.7276H404.08C348.206 32.7276 345.737 32.8305 342.547 34.7856C337.608 37.7696 335.755 41.3711 335.138 49.1914L334.521 56.0856L305.915 30.0522C275.045 2.06384 273.09 0.726159 262.595 0.931956C259.713 0.931956 255.392 1.65225 253.025 2.47543ZM302.313 68.845C323.408 88.087 342.341 104.654 344.296 105.477C351.602 108.667 361.583 104.962 364.464 97.9652C365.493 95.5986 365.905 89.9392 365.905 79.0319V63.5971H403.977H442.05V128.012C442.05 183.268 442.255 192.838 443.593 195.719C444.416 197.468 454.809 207.758 466.642 218.459L488.148 238.01L465.305 238.525C452.237 238.833 441.432 239.554 439.992 240.274C436.699 241.714 433.2 245.522 431.863 249.123C431.039 251.078 430.731 286.372 430.731 361.077V470.046H381.34H331.948V402.854C331.948 328.767 332.154 331.545 325.466 326.606C322.584 324.445 321.555 324.445 263.006 324.445C204.457 324.445 203.428 324.445 200.547 326.606C193.858 331.545 194.064 328.767 194.064 402.854V470.046H144.673H95.2817V361.077C95.2817 286.372 94.973 251.078 94.1498 249.123C92.8121 245.522 89.3136 241.714 86.0208 240.274C84.5802 239.554 73.7759 238.833 60.7078 238.525L37.9672 238.01L150.024 135.832C211.66 79.7522 262.492 33.7566 263.006 33.7566C263.521 33.7566 281.219 49.5 302.313 68.845Z" fill="url(#paint0_linear_1110_444)"/>
<defs>
<linearGradient id="paint0_linear_1110_444" x1="262.956" y1="323.388" x2="262.956" y2="91.2566" gradientUnits="userSpaceOnUse">
<stop stop-color="#DFB46D"/>
<stop offset="1" stop-color="#E8CDA1"/>
</linearGradient>
</defs>
</svg>
