<svg width="501" height="501" viewBox="0 0 501 501" fill="none" xmlns="http://www.w3.org/2000/svg">
<path d="M124.341 34.8918L0 68.6875V108.441V148.293H14.6513H29.3026V280.643V412.993H14.6513H0V456.947V500.9H250.049H500.097V456.947V412.993H485.446H470.795V280.643V148.293H485.446H500.097V108.441V68.6875L374.78 34.6965C305.919 16.0405 249.365 0.803192 249.072 0.900867C248.779 0.900867 192.616 16.2359 124.341 34.8918ZM360.129 61.0688L470.795 91.1528V105.023V118.99H250.049H29.3026V105.023V91.1528L137.038 61.9479C196.23 45.8315 245.556 32.3523 246.63 31.9616C247.704 31.5709 248.779 31.1802 249.072 31.0825C249.365 31.0825 299.375 44.5617 360.129 61.0688ZM146.513 229.363V310.434H102.559H58.6051V229.363V148.293H102.559H146.513V229.363ZM324.282 280.643V412.993H250.049H175.815V280.643V148.293H250.049H324.282V280.643ZM441.492 229.363V310.434H397.538H353.584V229.363V148.293H397.538H441.492V229.363ZM87.9077 376.364V412.993H73.2564H58.6051V376.364V339.736H73.2564H87.9077V376.364ZM146.513 376.364V412.993H131.862H117.21V376.364V339.736H131.862H146.513V376.364ZM382.887 376.364V412.993H368.236H353.584V376.364V339.736H368.236H382.887V376.364ZM441.492 376.364V412.993H426.841H412.189V376.364V339.736H426.841H441.492V376.364ZM146.513 456.947V471.598H87.9077H29.3026V456.947V442.295H87.9077H146.513V456.947ZM324.282 456.947V471.598H250.049H175.815V456.947V442.295H250.049H324.282V456.947ZM470.795 456.947V471.598H412.189H353.584V456.947V442.295H412.189H470.795V456.947Z" fill="#252330"/>
<path d="M124.341 34.8918L0 68.6875V108.441V148.293H14.6513H29.3026V280.643V412.993H14.6513H0V456.947V500.9H250.049H500.097V456.947V412.993H485.446H470.795V280.643V148.293H485.446H500.097V108.441V68.6875L374.78 34.6965C305.919 16.0405 249.365 0.803192 249.072 0.900867C248.779 0.900867 192.616 16.2359 124.341 34.8918ZM360.129 61.0688L470.795 91.1528V105.023V118.99H250.049H29.3026V105.023V91.1528L137.038 61.9479C196.23 45.8315 245.556 32.3523 246.63 31.9616C247.704 31.5709 248.779 31.1802 249.072 31.0825C249.365 31.0825 299.375 44.5617 360.129 61.0688ZM146.513 229.363V310.434H102.559H58.6051V229.363V148.293H102.559H146.513V229.363ZM324.282 280.643V412.993H250.049H175.815V280.643V148.293H250.049H324.282V280.643ZM441.492 229.363V310.434H397.538H353.584V229.363V148.293H397.538H441.492V229.363ZM87.9077 376.364V412.993H73.2564H58.6051V376.364V339.736H73.2564H87.9077V376.364ZM146.513 376.364V412.993H131.862H117.21V376.364V339.736H131.862H146.513V376.364ZM382.887 376.364V412.993H368.236H353.584V376.364V339.736H368.236H382.887V376.364ZM441.492 376.364V412.993H426.841H412.189V376.364V339.736H426.841H441.492V376.364ZM146.513 456.947V471.598H87.9077H29.3026V456.947V442.295H87.9077H146.513V456.947ZM324.282 456.947V471.598H250.049H175.815V456.947V442.295H250.049H324.282V456.947ZM470.795 456.947V471.598H412.189H353.584V456.947V442.295H412.189H470.795V456.947Z" fill="url(#paint0_linear_1110_441)"/>
<defs>
<linearGradient id="paint0_linear_1110_441" x1="250.049" y1="323.372" x2="250.049" y2="91.2412" gradientUnits="userSpaceOnUse">
<stop stop-color="#DFB46D"/>
<stop offset="1" stop-color="#E8CDA1"/>
</linearGradient>
</defs>
</svg>
