<svg width="502" height="501" viewBox="0 0 502 501" fill="none" xmlns="http://www.w3.org/2000/svg">
<path d="M128.362 50.8686C15.656 98.7367 8.98587 101.679 5.55272 105.505C3.49282 107.761 1.33484 111.292 0.844385 113.352C0.157754 115.804 -0.136517 128.36 0.0596634 146.899C0.353934 175.934 0.353934 176.62 2.61001 179.661C3.78709 181.329 6.53362 183.585 8.6916 184.468L12.6152 186.233V328.954V471.774L8.98587 473.736C1.43293 477.855 -0.921239 485.31 3.00237 492.765C6.63171 499.828 9.37823 500.71 27.1326 500.71C43.2194 500.71 45.2793 500.22 49.7914 495.414C51.6551 493.452 52.3418 491.49 52.5379 487.174C53.0284 480.406 50.7723 476.09 45.4754 473.539L42.0423 471.872L42.1404 373.782V275.593L95.6976 230.668L149.255 185.841H251.563H353.871L407.33 230.668L460.888 275.593V373.684V471.774L457.454 473.638C447.743 478.934 447.645 492.961 457.16 498.749C460.005 500.514 462.163 500.71 475.405 500.71C492.178 500.71 495.513 499.926 499.045 494.923C501.791 491 502.576 486.193 501.203 481.779C499.927 478.052 494.14 472.264 491.786 472.264C490.511 472.264 490.315 454.216 490.315 329.249V186.135L493.944 183.781C501.595 178.68 501.595 179.073 501.889 149.449C502.085 132.48 501.791 121.199 501.105 117.766C499.535 110.017 495.612 105.211 488.157 101.679C484.724 100.11 431.068 76.8626 368.781 49.9858C298.548 19.676 254.015 1.03881 251.563 0.74454C248.032 0.450269 232.534 6.72804 128.362 50.8686ZM331.31 64.2089L410.862 97.0691L330.918 97.3634C286.974 97.4615 214.975 97.4615 170.933 97.3634L90.8912 97.0691L170.639 64.0127C214.583 45.866 250.778 31.0544 251.073 31.1525C251.465 31.2506 287.562 46.1603 331.31 64.2089ZM472.462 141.896L472.757 156.414H250.974H29.2906V141.7V126.987L250.778 127.183L472.168 127.477L472.462 141.896ZM101.877 187.214C99.2289 189.666 44.4945 235.474 43.2194 236.259C42.3366 236.848 42.0423 231.257 42.0423 211.442V185.841H72.6464C98.6403 185.841 103.054 186.037 101.877 187.214ZM460.888 211.54C460.888 235.867 460.789 237.044 459.22 235.671C458.239 234.886 444.899 223.704 429.499 210.854C414.099 198.004 401.151 187.116 400.66 186.724C400.072 186.233 413.314 185.841 430.283 185.841H460.888V211.54Z" fill="#252330"/>
<path d="M128.362 50.8686C15.656 98.7367 8.98587 101.679 5.55272 105.505C3.49282 107.761 1.33484 111.292 0.844385 113.352C0.157754 115.804 -0.136517 128.36 0.0596634 146.899C0.353934 175.934 0.353934 176.62 2.61001 179.661C3.78709 181.329 6.53362 183.585 8.6916 184.468L12.6152 186.233V328.954V471.774L8.98587 473.736C1.43293 477.855 -0.921239 485.31 3.00237 492.765C6.63171 499.828 9.37823 500.71 27.1326 500.71C43.2194 500.71 45.2793 500.22 49.7914 495.414C51.6551 493.452 52.3418 491.49 52.5379 487.174C53.0284 480.406 50.7723 476.09 45.4754 473.539L42.0423 471.872L42.1404 373.782V275.593L95.6976 230.668L149.255 185.841H251.563H353.871L407.33 230.668L460.888 275.593V373.684V471.774L457.454 473.638C447.743 478.934 447.645 492.961 457.16 498.749C460.005 500.514 462.163 500.71 475.405 500.71C492.178 500.71 495.513 499.926 499.045 494.923C501.791 491 502.576 486.193 501.203 481.779C499.927 478.052 494.14 472.264 491.786 472.264C490.511 472.264 490.315 454.216 490.315 329.249V186.135L493.944 183.781C501.595 178.68 501.595 179.073 501.889 149.449C502.085 132.48 501.791 121.199 501.105 117.766C499.535 110.017 495.612 105.211 488.157 101.679C484.724 100.11 431.068 76.8626 368.781 49.9858C298.548 19.676 254.015 1.03881 251.563 0.74454C248.032 0.450269 232.534 6.72804 128.362 50.8686ZM331.31 64.2089L410.862 97.0691L330.918 97.3634C286.974 97.4615 214.975 97.4615 170.933 97.3634L90.8912 97.0691L170.639 64.0127C214.583 45.866 250.778 31.0544 251.073 31.1525C251.465 31.2506 287.562 46.1603 331.31 64.2089ZM472.462 141.896L472.757 156.414H250.974H29.2906V141.7V126.987L250.778 127.183L472.168 127.477L472.462 141.896ZM101.877 187.214C99.2289 189.666 44.4945 235.474 43.2194 236.259C42.3366 236.848 42.0423 231.257 42.0423 211.442V185.841H72.6464C98.6403 185.841 103.054 186.037 101.877 187.214ZM460.888 211.54C460.888 235.867 460.789 237.044 459.22 235.671C458.239 234.886 444.899 223.704 429.499 210.854C414.099 198.004 401.151 187.116 400.66 186.724C400.072 186.233 413.314 185.841 430.283 185.841H460.888V211.54Z" fill="url(#paint0_linear_1110_433)"/>
<path d="M128.361 372.997C126.498 374.076 123.947 376.626 122.672 378.686C120.514 382.414 120.514 383.1 120.71 407.721C121.005 431.361 121.103 433.028 123.064 435.578C127.282 441.268 129.636 442.249 140.132 442.641L149.941 443.033V466.281C149.941 492.275 150.333 494.236 156.807 498.552C161.516 501.691 170.246 501.299 174.071 497.67C178.976 493.157 179.368 490.803 179.368 465.888V442.837H251.465H323.561V466.084C323.561 486.389 323.757 489.92 325.326 492.863C330.525 503.359 346.023 503.359 351.222 492.863C352.792 489.92 352.988 486.389 352.988 466.084V442.837H360.639C369.958 442.837 375.941 440.287 378.982 434.99C380.747 431.851 380.944 429.497 381.238 408.898C381.434 395.067 381.14 384.67 380.551 382.315C379.963 380.256 378.001 377.019 376.039 375.155L372.508 371.722L252.151 371.427C136.307 371.231 131.696 371.231 128.361 372.997ZM351.811 406.74L351.517 412.92L250.778 413.214L149.941 413.41V407.034V400.658H250.974H352.105L351.811 406.74Z" fill="#252330"/>
<path d="M128.361 372.997C126.498 374.076 123.947 376.626 122.672 378.686C120.514 382.414 120.514 383.1 120.71 407.721C121.005 431.361 121.103 433.028 123.064 435.578C127.282 441.268 129.636 442.249 140.132 442.641L149.941 443.033V466.281C149.941 492.275 150.333 494.236 156.807 498.552C161.516 501.691 170.246 501.299 174.071 497.67C178.976 493.157 179.368 490.803 179.368 465.888V442.837H251.465H323.561V466.084C323.561 486.389 323.757 489.92 325.326 492.863C330.525 503.359 346.023 503.359 351.222 492.863C352.792 489.92 352.988 486.389 352.988 466.084V442.837H360.639C369.958 442.837 375.941 440.287 378.982 434.99C380.747 431.851 380.944 429.497 381.238 408.898C381.434 395.067 381.14 384.67 380.551 382.315C379.963 380.256 378.001 377.019 376.039 375.155L372.508 371.722L252.151 371.427C136.307 371.231 131.696 371.231 128.361 372.997ZM351.811 406.74L351.517 412.92L250.778 413.214L149.941 413.41V407.034V400.658H250.974H352.105L351.811 406.74Z" fill="url(#paint1_linear_1110_433)"/>
<defs>
<linearGradient id="paint0_linear_1110_433" x1="250.974" y1="323.191" x2="250.974" y2="91.0714" gradientUnits="userSpaceOnUse">
<stop stop-color="#DFB46D"/>
<stop offset="1" stop-color="#E8CDA1"/>
</linearGradient>
<linearGradient id="paint1_linear_1110_433" x1="250.964" y1="454.793" x2="250.964" y2="394.721" gradientUnits="userSpaceOnUse">
<stop stop-color="#DFB46D"/>
<stop offset="1" stop-color="#E8CDA1"/>
</linearGradient>
</defs>
</svg>
