<svg width="561" height="561" viewBox="0 0 561 561" fill="none" xmlns="http://www.w3.org/2000/svg">
<path d="M280.383 26.9961C140.664 26.9961 27 140.664 27 280.379C27 420.094 140.664 533.758 280.383 533.758C420.098 533.758 533.762 420.094 533.762 280.379C533.762 140.664 420.098 26.9961 280.383 26.9961ZM280.383 560.758C205.488 560.758 135.078 531.594 82.1211 478.637C29.1641 425.684 0 355.273 0 280.379C0 205.484 29.1641 135.074 82.1211 82.1172C135.078 29.1602 205.488 -0.00390625 280.383 -0.00390625C355.273 -0.00390625 425.684 29.1602 478.641 82.1172C531.598 135.074 560.762 205.484 560.762 280.379C560.762 355.273 531.598 425.684 478.641 478.637C425.684 531.594 355.273 560.758 280.383 560.758Z" fill="white"/>
<path d="M342.847 406.828C345.398 407.781 347.468 407.945 349.015 407.309C350.781 406.586 352.019 404.828 352.542 403.957L399.265 168.395C397.14 168.691 394.312 169.484 392.464 170.297C392.335 170.352 392.207 170.406 392.074 170.461L124.41 275.461C124.265 275.516 124.121 275.566 123.972 275.617C122.722 276.066 121.207 276.871 120.152 277.609C121.058 278.398 122.511 279.301 123.765 279.789L190.925 302.398C191.339 302.539 191.746 302.707 192.144 302.898L232.144 322.23C232.785 322.539 233.394 322.914 233.964 323.352L342.847 406.828ZM346.945 428.68C343.05 428.68 338.496 427.875 333.375 425.641C332.597 425.301 331.859 424.867 331.187 424.352L222.039 340.672L183.597 322.094L116.89 299.637C116.839 299.617 116.785 299.598 116.73 299.578C115.046 298.98 100.242 293.344 98.4878 279.32C96.98 267.262 107.429 259.16 116.937 255.832L384.226 150.98C388.601 149.086 402.558 143.965 412.55 150.488C415.609 152.488 420.742 157.289 420.742 167.02C420.742 167.703 420.675 168.387 420.539 169.062L372.875 409.395C372.746 410.027 372.562 410.648 372.324 411.25C371.871 412.379 367.617 422.379 356.988 426.738C354.441 427.785 351.058 428.68 346.945 428.68Z" fill="white"/>
<path d="M269.75 364.02L226.242 403.691C226.242 404.973 219.117 404.973 219.117 403.691L227.449 330.969L227.906 329.684C227.906 329.684 349.906 220.02 354.906 215.352C359.906 210.684 358.242 209.684 358.242 209.684C358.574 204.02 349.242 209.684 349.242 209.684L187.574 312.352C187.574 312.352 207.906 379.02 211.906 391.684C215.906 404.352 218.262 404.121 219.117 404.121" fill="white"/>
<path d="M199.949 316.93C203.02 326.984 208.59 345.223 213.438 361.031L217.02 329.773C217.11 328.977 217.293 328.195 217.559 327.441L218.02 326.156C218.606 324.516 219.59 323.039 220.887 321.875C239.649 305.012 266.051 281.273 289.926 259.793L199.949 316.93ZM222.68 415.152C220.738 415.152 219.043 414.934 217.57 414.543C208.574 413.59 204.766 403.934 201.895 394.844C197.926 382.273 178.363 318.141 177.531 315.414C176.153 310.898 177.961 306.019 181.945 303.488L343.613 200.82C343.672 200.781 343.731 200.746 343.793 200.711C348.949 197.578 356.438 194.648 362.797 198.48C365.945 200.375 367.988 203.512 368.574 207.191C368.75 207.812 368.875 208.449 368.945 209.102C369.586 215.16 365.61 219.727 362.074 223.027C357.41 227.383 255.738 318.785 237.539 335.145L231.906 384.316L262.676 356.262C266.961 352.352 273.606 352.66 277.512 356.945C281.418 361.23 281.11 367.871 276.824 371.777L234.199 410.645C232.113 413.156 228.524 415.152 222.68 415.152Z" fill="white"/>
<path d="M269.743 374.519C267.485 374.519 265.207 373.793 263.286 372.293L220.985 339.242C216.415 335.672 215.606 329.07 219.176 324.504C222.747 319.934 229.348 319.125 233.915 322.695L276.215 355.746C280.786 359.316 281.598 365.914 278.024 370.484C275.954 373.133 272.864 374.519 269.743 374.519Z" fill="white"/>
</svg>
