<svg width="121" height="66" viewBox="0 0 121 66" fill="none" xmlns="http://www.w3.org/2000/svg">
<path fill-rule="evenodd" clip-rule="evenodd" d="M3 34.0967C4.38071 34.0967 5.5 35.216 5.5 36.5967V60.0967H118C119.381 60.0967 120.5 61.216 120.5 62.5967C120.5 63.9774 119.381 65.0967 118 65.0967H4C2.067 65.0967 0.5 63.5297 0.5 61.5967V36.5967C0.5 35.216 1.61929 34.0967 3 34.0967Z" fill="white"/>
<path fill-rule="evenodd" clip-rule="evenodd" d="M25.0266 5.60537L56.7592 36.3908C57.7502 37.3522 59.3329 37.3282 60.2943 36.3372C61.2558 35.3462 61.2318 33.7635 60.2408 32.8021L27.4477 0.987918C26.0752 -0.343653 23.888 -0.327092 22.5358 1.02513L0.732233 22.8287C-0.244078 23.805 -0.244078 25.3879 0.732233 26.3642C1.70854 27.3405 3.29146 27.3405 4.26777 26.3642L25.0266 5.60537Z" fill="white"/>
<path fill-rule="evenodd" clip-rule="evenodd" d="M55 29.0967C56.3807 29.0967 57.5 30.216 57.5 31.5967V48.5967C57.5 49.9774 56.3807 51.0967 55 51.0967C53.6193 51.0967 52.5 49.9774 52.5 48.5967V31.5967C52.5 30.216 53.6193 29.0967 55 29.0967Z" fill="white"/>
<path fill-rule="evenodd" clip-rule="evenodd" d="M54.5266 5.60537L86.2592 36.3908C87.2502 37.3522 88.8329 37.3282 89.7943 36.3372C90.7558 35.3462 90.7318 33.7635 89.7408 32.8021L56.9477 0.987918C55.5752 -0.343654 53.388 -0.327092 52.0358 1.02513L38.2322 14.8287C37.2559 15.805 37.2559 17.3879 38.2322 18.3642C39.2085 19.3405 40.7915 19.3405 41.7678 18.3642L54.5266 5.60537Z" fill="white"/>
<path fill-rule="evenodd" clip-rule="evenodd" d="M84.5 29.0967C85.8807 29.0967 87 30.216 87 31.5967V48.5967C87 49.9774 85.8807 51.0967 84.5 51.0967C83.1193 51.0967 82 49.9774 82 48.5967V31.5967C82 30.216 83.1193 29.0967 84.5 29.0967Z" fill="white"/>
<path fill-rule="evenodd" clip-rule="evenodd" d="M84.5266 5.60537L116.259 36.3908C117.25 37.3522 118.833 37.3282 119.794 36.3372C120.756 35.3462 120.732 33.7635 119.741 32.8021L86.9477 0.987918C85.5752 -0.343654 83.388 -0.327092 82.0358 1.02513L68.2322 14.8287C67.2559 15.805 67.2559 17.3879 68.2322 18.3642C69.2085 19.3405 70.7915 19.3405 71.7678 18.3642L84.5266 5.60537Z" fill="white"/>
<path fill-rule="evenodd" clip-rule="evenodd" d="M114.5 29.0967C115.881 29.0967 117 30.216 117 31.5967V48.5967C117 49.9774 115.881 51.0967 114.5 51.0967C113.119 51.0967 112 49.9774 112 48.5967V31.5967C112 30.216 113.119 29.0967 114.5 29.0967Z" fill="white"/>
</svg>
