<svg width="121" height="66" viewBox="0 0 121 66" fill="none" xmlns="http://www.w3.org/2000/svg">
<path fill-rule="evenodd" clip-rule="evenodd" d="M3.5 35C4.88071 35 6 36.1193 6 37.5V61H118.5C119.881 61 121 62.1193 121 63.5C121 64.8807 119.881 66 118.5 66H4.5C2.567 66 1 64.433 1 62.5V37.5C1 36.1193 2.11929 35 3.5 35Z" fill="black"/>
<path fill-rule="evenodd" clip-rule="evenodd" d="M25.5266 6.50869L57.2592 37.2941C58.2502 38.2555 59.8329 38.2315 60.7943 37.2405C61.7558 36.2495 61.7318 34.6668 60.7408 33.7054L27.9477 1.89124C26.5752 0.559667 24.388 0.576228 23.0358 1.92845L1.23223 23.732C0.255922 24.7083 0.255922 26.2912 1.23223 27.2675C2.20854 28.2438 3.79146 28.2438 4.76777 27.2675L25.5266 6.50869Z" fill="black"/>
<path fill-rule="evenodd" clip-rule="evenodd" d="M55.5 30C56.8807 30 58 31.1193 58 32.5V49.5C58 50.8807 56.8807 52 55.5 52C54.1193 52 53 50.8807 53 49.5V32.5C53 31.1193 54.1193 30 55.5 30Z" fill="black"/>
<path fill-rule="evenodd" clip-rule="evenodd" d="M55.0266 6.50869L86.7592 37.2941C87.7502 38.2555 89.3329 38.2315 90.2943 37.2405C91.2558 36.2495 91.2318 34.6668 90.2408 33.7054L57.4477 1.89124C56.0752 0.559667 53.888 0.576229 52.5358 1.92845L38.7322 15.732C37.7559 16.7083 37.7559 18.2912 38.7322 19.2675C39.7085 20.2438 41.2915 20.2438 42.2678 19.2675L55.0266 6.50869Z" fill="black"/>
<path fill-rule="evenodd" clip-rule="evenodd" d="M85 30C86.3807 30 87.5 31.1193 87.5 32.5V49.5C87.5 50.8807 86.3807 52 85 52C83.6193 52 82.5 50.8807 82.5 49.5V32.5C82.5 31.1193 83.6193 30 85 30Z" fill="black"/>
<path fill-rule="evenodd" clip-rule="evenodd" d="M85.0266 6.50869L116.759 37.2941C117.75 38.2555 119.333 38.2315 120.294 37.2405C121.256 36.2495 121.232 34.6668 120.241 33.7054L87.4477 1.89124C86.0752 0.559667 83.888 0.576229 82.5358 1.92845L68.7322 15.732C67.7559 16.7083 67.7559 18.2912 68.7322 19.2675C69.7085 20.2438 71.2915 20.2438 72.2678 19.2675L85.0266 6.50869Z" fill="black"/>
<path fill-rule="evenodd" clip-rule="evenodd" d="M115 30C116.381 30 117.5 31.1193 117.5 32.5V49.5C117.5 50.8807 116.381 52 115 52C113.619 52 112.5 50.8807 112.5 49.5V32.5C112.5 31.1193 113.619 30 115 30Z" fill="black"/>
</svg>
