<?xml version="1.0" encoding="utf-8"?>
<!-- Generator: Adobe Illustrator 23.1.0, SVG Export Plug-In . SVG Version: 6.00 Build 0)  -->
<svg version="1.1" id="_x31_" xmlns="http://www.w3.org/2000/svg" xmlns:xlink="http://www.w3.org/1999/xlink" x="0px" y="0px"
	 viewBox="0 0 689.4 202.3" style="enable-background:new 0 0 689.4 202.3;" xml:space="preserve">
<style type="text/css">
	.st0{fill-rule:evenodd;clip-rule:evenodd;fill:#85B725;}
	.st1{fill-rule:evenodd;clip-rule:evenodd;fill:#FFFFFF;}
</style>
<g>
	<rect class="st0" width="689.4" height="202.3"/>
	<path class="st1" d="M418.3,137.3l6-72.3h19.2L454,95.5l3.6,11.9h0.2c1.3-4.9,2.6-8.8,3.6-11.9L472.1,65h19.2l5.9,72.3h-17.7
		l-2.2-32.6c-0.1-1.6-0.2-3.4-0.2-5.5c0-2,0-3.6,0.1-4.9l0.1-1.8H477c-1.6,5.1-3,9.1-4,12.1l-7.6,20.9h-15.2l-7.6-20.9l-4-12.1h-0.2
		c0.3,4.5,0.3,8.5,0,12.1l-2.2,32.6H418.3L418.3,137.3z M364.5,93.5c7.3,0,13.2,5.9,13.2,13.2c0,7.3-5.9,13.2-13.2,13.2
		c-7.3,0-13.2-5.9-13.2-13.2C351.3,99.4,357.2,93.5,364.5,93.5L364.5,93.5z M50.2,137.3V65h47v15.2H67.9v11.2h12.3
		c7,0,12.7,2.2,17,6.5c4.4,4.3,6.5,9.8,6.5,16.6c0,6.7-2.2,12.2-6.5,16.5c-4.3,4.2-10,6.4-17,6.4H50.2L50.2,137.3z M67.9,122.1h9
		c2.8,0,5-0.7,6.6-2.1c1.6-1.4,2.3-3.3,2.3-5.6c0-2.4-0.8-4.3-2.4-5.7c-1.6-1.4-3.9-2.2-6.8-2.2h-8.7V122.1L67.9,122.1z
		 M106.4,137.3L130.9,65h18.6l24.6,72.3h-18.2l-4.5-15.2h-22.6l-4.3,15.2H106.4L106.4,137.3z M133.1,108h14.3l-4-14.1l-2.9-12.4
		h-0.2c-1.1,5.3-2.1,9.4-2.9,12.4L133.1,108L133.1,108z M181.4,137.3V65h17.7v28.9h26.3V65h17.7v72.3h-17.7V109h-26.3v28.3H181.4
		L181.4,137.3z M251.5,137.3l13.9-23.3l2.7-4.4v-0.2c-7.8-4.3-11.6-11.5-11.6-21.4c0-5.3,1.2-9.8,3.6-13.5c2.4-3.7,5.7-6.3,9.7-7.8
		c3-1.1,7.7-1.7,14.1-1.7h25.2v72.3h-17.7v-24.4h-6.5l-13.7,24.4H251.5L251.5,137.3z M283.7,98.3h7.7V80.2h-6c-4,0-6.8,0.7-8.5,2
		c-1.6,1.3-2.4,3.6-2.4,6.8C274.5,95.2,277.6,98.3,283.7,98.3L283.7,98.3z M505.7,101c0-10.7,3.6-19.5,10.7-26.6
		c7.1-7.1,16.2-10.6,27.3-10.6c5.1,0,10,0.9,14.8,2.6c4.8,1.7,8.9,4.3,12.3,7.6l-8.2,13.4c-2.4-2.2-5.3-3.9-8.5-5.3
		c-3.3-1.4-6.5-2.1-9.6-2.1c-6.7,0-11.8,2-15.3,6c-3.4,4-5.2,8.9-5.2,14.6c0,5.9,1.8,11,5.3,15.3c3.5,4.3,8.6,6.5,15.1,6.5
		c6.9,0,13.3-3,19.2-8.9l9.1,12.9c-7.8,8.1-17.5,12.1-29.1,12.1c-11.5,0-20.7-3.5-27.6-10.6C509.2,120.9,505.7,111.9,505.7,101
		L505.7,101z M581.8,137.3V65h17.7v27.9h7.3l15-27.9h19l-19.5,34.6v0.2l20.6,37.5h-19.8L606.8,108h-7.3v29.3H581.8z"/>
</g>
</svg>
